<?xml version="1.0" encoding="utf-8"?>
<!-- Generator: Adobe Illustrator 24.0.1, SVG Export Plug-In . SVG Version: 6.00 Build 0)  -->
<svg version="1.1" id="Layer_1" xmlns="http://www.w3.org/2000/svg" xmlns:xlink="http://www.w3.org/1999/xlink" x="0px" y="0px"
	 viewBox="0 0 1296 1728" style="enable-background:new 0 0 1296 1728;" xml:space="preserve">
<style type="text/css">
	.st0{fill:#34231E;}
	.st1{fill:#564664;}
	.st2{fill:#6A8B3C;}
	.st3{fill:#C85151;}
	.st4{fill:#435772;}
	.st5{fill:#757575;}
	.st6{fill:#747474;}
	.st7{fill:#35241F;}
	.st8{fill:#958650;}
	.st9{fill:#739346;}
	.st10{fill:#988652;}
	.st11{fill:#9A8955;}
	.st12{fill:#C0AF7D;}
	.st13{fill:#9B8A56;}
	.st14{fill:#FCFCFC;}
	.st15{fill:#749641;}
	.st16{fill:#634141;}
	.st17{fill:#644141;}
	.st18{fill:#DD9696;}
	.st19{fill:#634040;}
	.st20{fill:#6C577E;}
	.st21{fill:#8567A1;}
	.st22{fill:#6C587F;}
	.st23{fill:#82669E;}
	.st24{fill:#C0B07D;}
	.st25{fill:#BFAF7D;}
	.st26{fill:#35231F;}
	.st27{fill:#948550;}
	.st28{fill:#958550;}
	.st29{fill:#BEAE7C;}
	.st30{fill:#503539;}
	.st31{fill:#452E33;}
	.st32{fill:#8FBD50;}
	.st33{fill:#8CB851;}
	.st34{fill:#84AD4D;}
	.st35{fill:#CB6767;}
	.st36{fill:#DD9494;}
	.st37{fill:#BFAD7B;}
	.st38{fill:#D98282;}
	.st39{fill:#4D8DA7;}
	.st40{fill:#7C6B45;}
	.st41{fill:#8EBB50;}
	.st42{fill:#B0B378;}
	.st43{fill:#8D8D8D;}
	.st44{fill:#674748;}
	.st45{fill:#684647;}
	.st46{fill:#6A4848;}
	.st47{fill:#684748;}
	.st48{fill:#664546;}
	.st49{fill:#634444;}
	.st50{fill:#614343;}
	.st51{fill:#A7A7A7;}
	.st52{fill:#35241E;}
	.st53{fill:#A4A4A4;}
	.st54{fill:#90BE50;}
	.st55{fill:#4B422C;}
	.st56{fill:#B6A470;}
	.st57{fill:#362520;}
	.st58{fill:#382621;}
	.st59{fill:#E96767;}
	.st60{fill:#E96969;}
	.st61{fill:#E1E1E1;}
	.st62{fill:#352520;}
	.st63{fill:#958551;}
	.st64{fill:#362724;}
	.st65{fill:#413030;}
	.st66{fill:#49393C;}
	.st67{fill:#4D3B4A;}
	.st68{fill:#362521;}
	.st69{fill:#E66364;}
	.st70{fill:#E66465;}
	.st71{fill:#DE878D;}
	.st72{fill:#87A54E;}
	.st73{fill:#576E35;}
	.st74{fill:#3A2622;}
	.st75{fill:#586F35;}
	.st76{fill:#392622;}
	.st77{fill:#574562;}
	.st78{fill:#9D3C3D;}
	.st79{fill:#435873;}
	.st80{fill:#352622;}
	.st81{fill:#9A8D5A;}
	.st82{fill:#7695A2;}
	.st83{fill:#45ACB9;}
	.st84{fill:#604942;}
	.st85{fill:#362820;}
	.st86{fill:#36312C;}
	.st87{fill:#3D2B25;}
	.st88{fill:#684945;}
	.st89{fill:#372820;}
	.st90{fill:#684747;}
	.st91{fill:#674646;}
	.st92{fill:#674745;}
	.st93{fill:#593E3B;}
	.st94{fill:#D5D5D5;}
	.st95{fill:#F59393;}
	.st96{fill:#372721;}
	.st97{fill:#BDAD7A;}
	.st98{fill:#F29697;}
	.st99{fill:#F29596;}
	.st100{fill:#6A4748;}
	.st101{fill:#86A54E;}
	.st102{fill:#6B567E;}
	.st103{fill:#D79292;}
	.st104{fill:#E6E6E6;}
	.st105{fill:#BCAE7C;}
	.st106{fill:#8FBD4F;}
	.st107{fill:#6F9643;}
	.st108{fill:#6C9648;}
	.st109{fill:#382722;}
	.st110{fill:#4F6C79;}
	.st111{fill:#6EC6CD;}
	.st112{fill:#8EBD51;}
	.st113{fill:#4D6F7E;}
	.st114{fill:#8CBC4E;}
	.st115{fill:#6CBEC0;}
</style>
<g>
	<path class="st0" d="M797.57,1437.33c1.09,0.22,1.82-0.48,2.61-1.02c2.28-0.94,4.76-1.23,7.08-2.05l-0.04,0.02
		c1.68-0.9,3.51-1.39,5.32-1.94c1.8-0.09,3.29-0.9,4.66-1.99c1.37-2.08,2.66-3.52,5.79-3.45c3.93,0.09,6.98-3.27,10.68-4.52
		c0.51-0.4,1.02-0.79,1.53-1.19c3.63-2.13,7.46-3.89,11.23-5.75l-0.09,0.08c4.39-3.22,9.17-5.78,14.11-8.04l-0.1,0.08
		c4.48-3.07,9.15-5.82,14.09-8.07l-0.09,0.08c1.89-2.2,4.8-2.68,7.09-4.2c4.92-3.4,9.83-6.8,14.75-10.2
		c1.56-0.66,2.53-2.2,4.14-2.78l-0.07,0.06c1.37-1.1,2.5-2.55,4.32-3.03c6.2-4.69,12.4-9.38,18.6-14.07
		c1.72-2.61,2.92-5.7,6.25-6.85l-0.09,0.07c3.67-3.74,7.67-7.17,10.96-11.28c1.96-2.03,3.92-4.06,5.88-6.09
		c1.86-2.45,4.2-4.47,6.22-6.78l-0.07,0.09c1.04-2.57,3.56-3.94,4.98-6.21c0.29-0.32,0.58-0.65,0.88-0.97
		c1.45-2.21,3.54-3.87,5.16-5.93l-0.06,0.07c0.78-1.55,1.86-2.86,3.16-4l-0.07,0.09c2.72-4.25,6.03-8.08,8.88-12.23
		c0.64-0.96,1.29-1.92,1.93-2.88c2.32-2.82,3.84-6.21,6.3-8.93l-0.08,0.09c4.88-8.45,10.41-16.51,15.02-25.11l-0.07,0.1
		c7.4-13.37,12.79-27.72,19.95-41.21c1.62-5.41,3.24-10.82,4.86-16.23c1.29-1.37-0.3-3.43,1.15-4.76c0.11-1.41-0.51-2.97,0.86-4.12
		c1.2-5.23,1.74-10.59,3.24-15.76l-0.08,0.12c0.97-1.58-0.5-3.66,1.06-5.12l-0.07,0.11c1.03-1.91-0.54-4.29,1.09-6.1l-0.08,0.12
		c1-1.56-0.56-3.68,1.11-5.09l-0.08,0.12c0.43-2.45,1.06-4.84,1.87-7.19l-0.02,0.05c1.21-1.48-0.39-3.6,1.15-5l-0.07,0.1
		c1.15-2.25-0.54-4.92,1.04-7.11l-0.06,0.1c2.56-18.21,3.92-36.61,3.12-54.89c-0.87-19.87-2.14-39.75-2.11-59.62
		c0.02-11.19-0.56-22.53,1.18-33.73c0.92-5.89,0.66-11.92,0.89-17.83c0.38-10.08,1.59-20.14,1.39-30.26
		c-0.05-2.87-2.49-5.65-0.37-8.59l-0.07,0.11c0.96-7.43,0.39-14.92,0.12-22.33c-0.23-6.29-0.86-12.59-0.72-18.91
		c0.3-13.98-0.87-27.92-1.3-41.87c-0.39-12.58-2.5-25.19-1.55-37.75c0.98-12.82,0.78-25.6,0.74-38.39
		c-0.03-9.43-1.03-18.84-1.26-28.28c-0.09-3.63,1.12-7.26-0.07-10.88c0.42-1.19,0.41-2.38,0.01-3.58c-1.79-1.75,0.72-3.51,0-5.26
		c0.25-0.27,0.22-0.52-0.07-0.74c-0.89-7.56-1.56-15.19-1.41-22.76c0.22-11.33-1.65-22.45-2.46-33.68
		c-0.59-8.11-1.13-16.22-1.72-24.33c-0.42-5.76-0.86-11.53-1.36-17.29l0.05,0.09c-1.54-2.57,0.11-5.52-0.98-8.14l0.08,0.11
		c-1.76-2.52,0.09-5.51-1.08-8.11l0.08,0.12c-1.78-2.85,0.12-6.16-1.12-9.07l0.06,0.1c-1.07-7.39-1.67-14.82-1.68-22.3
		c0-1.95,0.33-3.93-0.31-5.85l0.08,0.1c-2.23-2.73-2.34-6.26-2.58-9.35c-0.77-9.72-1.63-19.46-1.23-29.26
		c0.25-6.11-1.21-12.11-1.81-18.17c-0.5-5.11-0.13-10.29-0.11-15.44c0.62-2.27,2.27-2.58,4.26-2.25c2.68,1.16,3.24,3.52,3.55,6.11
		c0.89,7.43,1.24,14.92,2.03,22.36c0.54,5.09,1.49,6.01,6.59,5.65c2.32-0.16,4.59-0.92,6.94-0.76c2.9,0.2,5.47,1.22,5.7,4.46
		c0.23,3.31-2.25,4.63-5.13,4.98c-3.14,0.38-6.3,0.55-9.43,1.06c-2.76,0.45-3.53,1.86-3.15,4.53c3.83,27.52,4.06,55.41,8.66,82.85
		c0.22,1.31,0.54,2.62,0.64,3.94c0.25,3.28,2.22,4.14,5.14,3.89c1.83-0.16,3.63-0.5,5.43-0.82c1.81-0.31,3.61-0.65,5.46-0.41
		c3.92,0.52,6.67,2.86,6.38,5.77c-0.37,3.7-3.11,4.97-6.33,5.15c-3.83,0.21-7.62,0.77-11.44,1.02c-2.64,0.17-3.43,1.39-3.2,3.87
		c1.4,15.4,2.91,30.8,4.25,46.2c0.72,8.27,1.43,16.56,1.56,24.89c0.11,7.46,0.88,8.01,8.25,6.84c2.48-0.39,4.96-0.63,7.46-0.34
		c2.09,0.25,4.07,0.9,4.4,3.31c0.36,2.58-1.32,4.02-3.5,4.82c-2.83,1.04-5.84,1.28-8.83,1.6c-6.21,0.66-7.04,1.32-6.79,7.35
		c0.47,11.18-1.67,22.26-0.99,33.41c0.47,7.64,1.62,15.28,0.64,22.91c-0.72,5.66-0.72,11.29-0.69,16.94
		c0.04,5.48,0.92,6.18,6.24,5.12c3.75-0.74,7.43-1.95,11.33-1.65c2.57,0.2,5.42,0.46,5.57,3.73c0.15,3.3-2.43,4.54-5.3,4.84
		c-3.99,0.41-7.87,1.57-11.84,1.87c-3.84,0.29-5.35,2.03-5.04,5.74c0.84,9.95,0.83,19.94,1.33,29.9c0.23,4.64,0.6,9.28,0.69,13.94
		c0.23,11.31-0.6,22.62,0.84,33.92c0.63,4.93,0.3,9.98-0.74,14.92c-0.38,1.79-0.72,3.6-0.83,5.43c-0.53,8.36,0.56,9.39,8.67,8.71
		c4.15-0.35,8.33-0.21,12.49-0.06c1.34,0.05,2.66,0.29,3.87,0.88c1.85,0.91,3.61,2.04,3.67,4.32c0.06,2.31-1.69,3.48-3.52,4.42
		c-1.68,0.85-3.51,1.02-5.35,1.03c-4.16,0.02-8.32,0.1-12.48-0.34c-6.34-0.66-8.17,0.86-8.5,7.28c-0.27,5.15-0.65,10.29-0.99,15.43
		c-1.29,19.6-1.68,39.26-1,58.88c0.45,13.12,1.44,26.22,1.84,39.35c0.09,2.77,1.05,4.3,3.98,4.64c3.47,0.4,6.93,0.91,10.44,0.96
		c3.22,0.04,6.39,0.88,6.36,4.77c-0.03,3.85-3.29,4.58-6.43,4.85c-2.66,0.23-5.31,0.01-7.97-0.37c-5.55-0.8-6.39-0.21-6.33,5.15
		c0.19,16.53-2.07,32.87-4.31,49.15c-1.58,11.5-4.3,22.9-6.77,34.28c-0.83,3.82-0.05,5.62,3.94,6.86c6.02,1.89,12,4.03,17.63,7
		c2.69,1.42,5.04,3.24,3.66,6.63c-1.33,3.27-4.38,3.42-7.24,2.52c-5.72-1.8-11.33-3.93-16.78-6.46c-2.73-1.27-4.39-0.64-5.23,2.35
		c-9.07,32.19-24.36,61.44-42.41,89.39c-3.2,4.96-3.01,5.68,2.41,8.01c7.02,3.02,13.27,6.97,17.5,13.55
		c1.46,2.26,3.24,4.72,0.81,7.2c-2.29,2.35-4.95,1.05-7.39-0.15c-1.81-0.89-3.36-2.17-4.75-3.62c-4.37-4.53-10.16-6.9-15.38-10.15
		c-2.35-1.46-3.69,0.01-4.97,1.69c-2.94,3.83-5.83,7.7-8.77,11.53c-8.75,11.42-19.21,21.22-29.31,31.37
		c-3.54,3.57-7.99,5.98-11.65,9.41c-2.02,1.9-2.58,3.71-1.09,6.12c2.94,4.77,4.54,10.46,9.65,13.73c1.33,0.85,2.05,2.24,1.41,3.9
		c-0.7,1.79-2.23,2.49-4,2.4c-4.32-0.2-7.56-2.32-9.8-5.97c-1.39-2.27-2.49-4.71-3.73-7.07c-1.83-3.45-3.97-3.88-7.19-1.55
		c-10.66,7.72-21.23,15.56-31.86,23.32c-8.25,6.02-16.92,11.28-26.01,15.81c-8.35,4.16-16.37,8.97-24.81,12.93
		c-3.56,1.67-4.83,4.25-4.54,7.99c0.3,3.82,1.07,7.58,1.46,11.39c0.25,2.45,0.18,4.95-2.76,5.62c-2.79,0.63-4.23-1.4-5.28-3.61
		c-1.56-3.28-1.02-6.87-1.41-10.32c-0.57-5.08-1.66-5.86-6.42-4.05c-19.2,7.29-39.47,9.37-59.55,12.38
		c-2.73,0.41-5.32-0.15-7.36-2.24c-0.94-4.25,1.66-6.54,4.75-8.57c1.05-0.39,2.14-0.2,3.21-0.15c1.86,0,3.74,0.16,5.54-0.52
		c10.97-2.26,22.03-4.03,33.07-5.88C793.13,1438.41,795.28,1437.58,797.57,1437.33z"/>
	<path class="st0" d="M423.12,1360.76c0.77,1.09,1.59,2.11,2.9,2.6c2.66,1.44,4.72,3.48,6.15,6.15c1.47,2.41,3.41,4.36,5.8,5.86
		c2.57,1.2,4.33,3.34,6.15,5.39c0.29,0.2,0.58,0.4,0.86,0.6c1.67,0.68,2.98,1.82,4.12,3.18l-0.09-0.08c2.22,0.78,3.57,2.61,5.12,4.2
		c6.16,4.41,12.23,8.95,18.85,12.68c1.47,0.63,3.35,0.55,4.14,2.37c3.85,3.03,8.32,4.84,12.8,6.64c1.81,0.92,3.8,1.53,5.21,3.11
		l-0.09-0.07c2.63,1.56,5.65,2.39,8.07,4.34c0.64,0.19,1.28,0.38,1.92,0.57c2.39,1.07,5.08,1.51,7.08,3.39
		c0.62,0.21,1.24,0.42,1.86,0.63c1.7,0.83,3.9,0.6,5.14,2.41c1.49,0.82,2.91,1.83,4.76,1.6c2.43,0.7,5.03,0.81,7.28,2.15l-0.11-0.08
		c3.73,0.92,7.59,1.41,11.11,3.08l-0.11-0.08c2.41,0.58,4.92,0.8,7.13,2.05l-0.11-0.08c1.59,0.96,3.66-0.48,5.13,1.04l-0.11-0.07
		c4.6,0.6,8.94,2.06,13.14,3.97l-0.07-0.04c1.67,0.74,3.5,1.05,5.08,2l-0.04-0.02c0.85,0.49,1.88,0.08,2.74,0.55
		c3.23,2.52,6.62,4.95,6.01,9.82c-1.67,0.82-3.28,0.19-4.84-0.32c-12-3.95-24.13-7.36-36.46-10.18
		c-11.68-2.67-23.18-6.1-33.92-11.56c-3.89-1.98-6.94-1.59-10.29,1.55c-4.24,3.98-8.66,7.76-12.61,12.04
		c-1.66,1.8-3.62,3.39-6.04,1.57c-2.43-1.82-1.47-4.19-0.15-6.22c2.54-3.9,5.23-7.71,8.91-10.67c0.39-0.31,0.82-0.56,1.22-0.86
		c5.34-3.95,5.43-4.21-0.45-7.39c-10.23-5.53-19.92-11.98-30.03-17.72c-14.89-8.44-26.69-20.71-39.05-32.32
		c-12.24-11.49-24.09-23.37-36.35-34.85c-8-7.49-14.57-16.35-20.88-25.36c-3.95-5.64-5.51-5.78-11.46-2.02
		c-2.67,1.69-5.29,3.46-8.18,4.78c-2.98,1.36-5.7,1.14-7.36-1.83c-1.67-3,0.15-5.04,2.71-6.49c3.49-1.97,6.52-4.6,9.87-6.77
		c4.59-2.98,5.14-5.08,1.71-9.18c-7.98-9.55-13.6-20.47-18.84-31.62c-2.33-4.96-4.24-10.12-7.28-14.74c-4-6.4-6.48-13.5-9.44-20.38
		c-10.99-25.57-20.64-51.63-28.79-78.25c-0.44-1.44-0.8-2.89-0.91-4.39c0.21-3.65-1.61-1.89-3.05-1.13c-2.31,0.83-4.51,2-6.96,2.43
		c-2.85,0.43-5.65,1.49-8.59,0.66c-3.75-2.88-3.75-5.34,0.15-7.66c2.09-1.24,4.37-2.14,6.64-3c2.41-0.54,4.8-1.19,6.92-2.54
		c0.33-0.24,0.67-0.48,0.98-0.75c1.45-1.46,0.13-2.66-0.39-3.94c-3.39-10.38-5.49-21.02-6.59-31.87c-0.28-2.76,0.89-5.15,1.64-7.66
		c0.12-4.08,0.73-8.18-0.54-12.19c-1.37-3.09-0.95-6.25-0.37-9.42c0.13-12.9,0.02-25.8,0.05-38.7c0-1.67-0.16-3.3-0.64-4.89
		c-0.7-12.63-0.93-25.28,0.15-37.9c0.38-4.5,0.3-8.98,0.37-13.47c0.06-3.87-1.82-4.98-5.39-4.2c-2.44,0.53-4.85,1.26-7.34,1.51
		c-2.98,0.3-6.03,0.04-7.04-3.26c-1.08-3.51,1.68-5.08,4.39-6.2c3.38-1.41,6.78-2.89,10.39-3.55c3.87-0.71,5.26-2.92,5.04-6.66
		c-0.15-2.65,0.07-5.33-0.04-7.99c-0.77-18.35,1.92-36.53,2.74-54.79c0.66-14.65,1.66-29.23,4.11-43.7c0.25-1.47,0.1-2.99,0.12-4.49
		c0.03-2.85-1.37-4.22-4.17-4.53c-2.67-0.29-5.32-0.35-7.98-0.12c-3,0.26-5.46-0.65-6.03-3.86c-0.63-3.54,1.79-5.12,4.77-5.9
		c2.93-0.77,5.97-0.53,8.96-0.48c3.69,0.06,5.51-1.38,5.51-5.28c0-8.99,1.34-17.92,1.25-26.91c-0.05-4.97-1.78-9.81-1.24-14.87
		c1.98-18.43,0.59-36.93,0.94-55.4c0.13-6.98-0.01-7-7.08-7.49c-3.18-0.22-6.27-0.76-6.35-4.77c-0.09-4.32,3.16-4.93,6.53-5.14
		c0.83-0.05,1.67-0.11,2.5-0.07c3.71,0.16,5.32-1.46,5.47-5.3c0.94-23.94,2.77-47.84,1.98-71.83c-0.12-3.49-0.16-7,0.02-10.49
		c0.19-3.61-0.72-5.74-4.94-5.43c-3.03,0.22-5.91-0.91-8.69-2.06c-2.91-1.21-5.68-2.82-4.54-6.6c1.13-3.74,4.21-3.72,7.38-3
		c1.63,0.37,3.2,0.92,4.84,1.24c5.25,1.02,6.69-0.08,6.87-5.42c0.13-3.83,0.02-7.66,0.05-11.49c0.03-3.68,0.36-7.32,1.75-10.78
		c3.98-3.43,5.83-3.55,8.23-0.55c-0.91,21.48-2.5,42.95-1.96,64.47c0.19,7.6-0.79,15.24,0.93,22.8c1.96,8.62-2.67,16.68-2.46,25.2
		c0.03,1.21-0.5,2.56-0.5,3.89c0.04,24.4-1.96,48.79-0.87,73.19c0.35,7.93,0.91,15.86,0.86,23.8c-0.99,3.61,0.17,7.22,0.01,10.84
		c0.11,2.73-0.03,5.47-0.04,8.2c-1.57,16.68-1.1,33.49-3.39,50.13c-1.47,10.7-2,21.5-2.43,32.27c-0.67,16.75-1.54,33.51-1.1,50.29
		c0.04,1.66-0.08,3.32-0.4,4.96c-1.24,7.06-0.61,14.22-1.03,21.33c-0.43,7.29-0.09,14.62-0.1,21.92
		c-0.93,15.6,0.04,31.21-0.19,46.81c-0.26,16.95,0.17,33.9-0.38,50.84c-0.45,14.12,3.09,27.55,6.44,41
		c4.64,18.6,10.49,36.86,16.92,54.93c6.1,17.15,12.77,34.09,19.88,50.85c0.46,1.08,0.76,2.18,1.16,3.27l-0.07-0.11
		c2.02,4.37,4.75,8.42,6.01,13.14l-0.08-0.11c1.66,2.89,3.21,5.83,4.13,9.06l-0.07-0.11c1.6,2.97,3.18,5.94,4.14,9.19
		c0.99,3.55,2.74,6.74,4.72,9.82c2.3,1.86,2.76,4.82,4.29,7.15c2.93,6,8.09,10.61,10.63,16.86c6.63,0.91,6.63,0.91,6.23,9.11
		l-0.07-0.08c1.4,1.06,2.42,2.41,3.2,3.97l-0.06-0.08c1.97,2.16,3.59,4.58,4.99,7.14l-0.08-0.09c1.26,1.19,2.5,2.39,3.07,4.09
		l-0.08-0.09c1.78,1.98,3.99,3.59,5.18,6.08c1.59,2.3,3.54,4.25,5.82,5.87c7.12,5.35,12.79,12.22,19.12,18.4
		c1.67,2.17,3.55,4.12,5.91,5.57C417.02,1353.83,419.85,1357.53,423.12,1360.76z"/>
	<path class="st1" d="M581.19,1450.19c-2.23-2.97-3.56-6.66-6.97-8.68c-1.09-6.74-4.9-12.46-7.08-18.8
		c-1.22-3.55-2.5-7.1-3.74-10.66l0.08,0.11c-1.87-4.54-2.79-9.36-4.12-14.06l0.07,0.1c-4.59-15.57-6.94-31.5-7.81-47.67
		c-0.8-1.91-0.69-4.36-3.14-5.29c-1.04-0.52-2.53-1.03-2.69-2.03c-0.86-5.48-4.27-9.47-7.52-13.58c-0.1-2.96,1.45-4.92,3.87-6.34
		c1.37-1.01,2.74-2.03,4.11-3.04c5.97-2.3,5.58-8.14,7.2-12.87l-0.08,0.1c2.75-14.2,7.64-27.71,13.04-41.07l-0.06,0.09
		c1.23-4.23,3.18-8.15,4.98-12.15c0.64-1.3,1.28-2.61,1.92-3.91c2.73-4.13,4.32-8.88,6.98-13.05c0.34-0.64,0.68-1.28,1.02-1.91
		c2.5-3.41,3.38-7.76,6.27-10.94l-0.08,0.09c1.22-2.12,2.42-4.26,4.04-6.12l-0.08,0.09c1.05-2.3,2.79-3.92,5-5.07l-0.09,0.07
		c7.02-4.89,18.56-6.27,25.79,3.07l-0.1-0.07c2.59,1.27,4.88-0.2,7.16-0.96c9.31-3.11,18.86-4.42,28.65-4.77
		c10.76-0.38,21.49-0.36,32.16,1.12c5.15,0.71,10.31,1.63,15.18,3.64l-0.11-0.07c1.71,0.65,3.59,0.91,5.11,2.04l-0.1-0.06
		c1.83,0.93,3.3,0.48,4.64-1.04c1.04-1.18,2.12-2.39,3.69-2.95l-0.09,0.07c10.26-6.9,20.5-6.48,28.8,1.19
		c1.56,1.9,3.11,3.81,4.67,5.71c1.98,1.63,2.07,4.12,2.26,6.26c0.57,6.39,2.33,12.57,2.61,19.05c0.34,7.71,2.74,15.16,4.82,22.6
		c1.33,4.77,3.01,9.44,4.69,14.1c-0.07,0.74-0.07,1.46,0.64,1.94c1.62,1.29,1.51,3.38,2.29,5.05l-0.07-0.1
		c1.16,1.51,1.4,3.39,2.05,5.11l-0.08-0.11c2.53,6.44,3.58,13.19,4.13,20.04l-0.07-0.09c2.35,16.42,3.83,32.85,1.35,49.41
		c-1.47,9.83-1.9,19.79-3.69,29.58c-0.94,5.16-1.89,10.32-4.91,14.79c-0.68,0.43-0.74,1.1-0.68,1.81c-0.89,3.28-2.7,6.16-4.04,9.25
		l0.05-0.08c-0.91,1.62-0.64,3.81-2.42,5.01c-1.64,3.16-3.66,6.15-4.62,9.63c-0.81,1.94-1.5,3.95-3.19,5.37
		c-0.77,0.35-0.83,1.03-0.79,1.75c-0.95,1.67-1.21,3.7-2.62,5.14c-2.71,1.7-3.73,4.63-5.25,7.19c-0.85,2.54-2.3,4.59-4.77,5.79
		c-2.13,0.97-4.22-1.11-6.35-0.06c-2.38,1.42-4.88,1.87-7.43,0.64c-2.21-1.06-4.41-0.81-6.65-0.26c-1.06,0.19-2.13,0.21-3.2,0.15
		c-7-3.98-14.44-2.71-21.85-1.84c-6.86-0.83-13.6,1.75-20.46,0.75c-2.37-0.81-4.48,0.11-6.61,0.99c-6.51,1.59-13.21,1.61-19.8,2.57
		c-0.52,0.17-1.06,0.28-1.6,0.36c-2.46,0.35-4.94,0.12-7.41,0.36c-5.44,1.06-11.02,0.66-16.47,1.59c-2.28,0.28-4.33-0.07-5.74-2.13
		c-2.91-5.62-4.57-6.82-10.66-4.79c-3.76,1.26-7.08,0.82-10.63,0.36c-1.18,0.19-2.33,0.56-3.54,0.6
		C586.02,1457.71,582.45,1455.35,581.19,1450.19z"/>
	<path class="st2" d="M1022.18,514.16c-1.42-0.25-2.71,0.11-3.94,0.78c-11.23-0.84-22.41-1.93-33-6.21l0.1,0.08
		c-1.72-0.63-3.62-0.84-5.1-2.06l0.09,0.08c-4.66-1.39-8.68-4.21-13.19-5.94c-1.31-0.63-2.61-1.27-3.92-1.9
		c-2.05-1.28-4.16-2.47-6.06-3.99c-0.38-0.33-0.76-0.67-1.13-1c-1.65-1.34-3.24-2.74-4.76-4.22l0.09,0.07
		c-1.54-0.37-2.29-1.66-3.19-2.76c-0.66-0.69-1.31-1.38-1.97-2.07c-2.1-3.02-4.98-5.3-7.48-7.95c-1.64-1.73-3.65-1.91-5.91-1.72
		c-12.31,1.02-24.26-1.07-36.06-4.32c-3.06-0.84-5.81-2.35-8.55-3.88c-1.4-0.7-2.8-1.41-4.21-2.11c-1.92-0.99-3.97-1.7-5.79-2.89
		c-2.65-2.03-5.31-4.07-7.96-6.1c-1.89-1.05-3.13-2.93-5.05-3.95c-0.38-0.35-0.76-0.7-1.14-1.04c-2.88-2.4-5.58-4.97-7.86-7.95
		c-0.32-0.35-0.65-0.69-0.97-1.04c-1.38-2.23-3.6-3.77-5.03-5.96c-0.32-0.35-0.63-0.69-0.95-1.04c-1.05-1.91-3.18-3.04-3.86-5.22
		l0.07,0.09c-3.25-3.1-4.94-7.23-7.25-10.94c-0.63-1.3-1.26-2.6-1.89-3.89c-1.01-2.38-2.24-4.67-3-7.16l0.06,0.09
		c-6.22-17.08-8.55-34.32-2.11-51.92c0.65-1.34,1.29-2.68,1.94-4.02c1.31-1.75,1.04-4.1,2.22-5.89l-0.07,0.1
		c0.63-1.72,0.94-3.56,2.01-5.11l-0.05,0.08c0.6-1.4,0.72-3.04,2.08-4.05l-0.06,0.08c0.97-1.71,1.72-3.54,2.91-5.13l0,0
		c2.14-10.53,0.84-21.33,2.65-31.9c3.37-19.69,12.18-36.21,27.83-48.88c2.58-0.3,4.11-2.56,6.41-3.39c2.4-0.86,4.81-1.81,5.82,1.81
		c-0.39,3.45-3.48,4.49-5.66,6.34c-13.95,11.74-23.63,25.84-25.79,44.51c-0.81,7.01-0.69,13.88-0.03,20.84
		c0.26,2.79,0.28,5.65-0.23,8.45c-5.15,7.77-8.94,16.17-12.74,24.71c-8.23,18.5-5.36,36.18,1.9,53.69
		c7.19,17.36,19.56,30.73,34.62,41.72c2.55,1.86,4.62,4.35,7.55,5.71c1.95,1.16,4.05,1.94,6.2,2.65
		c11.51,6.22,23.98,7.57,36.78,7.26c1.52-0.04,3.06-0.17,4.33-1.01c4.04-2.7,6.59-0.72,9.32,2.37
		c18.86,21.31,41.52,35.24,70.66,37.91c22.61,2.07,43.23-3.07,62.79-13.87c5.1-2.82,10.3-5.45,15.32-8.41
		c1.87-1.1,4.32-1.79,5.44-3.44c3.39-5,8.4-4.9,13.51-5.41c13.72-1.38,26.71-5.42,39.02-11.64c7.72-3.9,15.55-7.54,23.03-11.95
		c20.48-12.05,33.97-29.87,43.96-50.96c8.98-18.94,8.23-38.4,3.99-58.11c-1.15-5.34-3.78-10.29-5.78-15.4
		c-3.03-7.72-3.9-15.77-3.78-23.95c0.03-2.04-0.23-3.96-0.83-5.88c-7.48-23.92-22.85-39.75-47.42-46.06
		c-16.98-4.36-34.11-5.23-51.46-2.3c-2.82,0.48-3.85,2.95-6.14,3.79c-2.69-3.07-1.98-6.43-0.87-9.82
		c10.83-3.48,21.69-6.76,33.31-5.41c4.27,0.5,8.48,1.33,12.79,1.71c13.34,1.16,25.16,6.65,36.38,13.62c1.06,1.73,3.39,1.45,4.62,2.9
		c1.86,0.44,3.02,1.86,4.33,3.07l-0.07-0.05c10.76,7.35,16.1,18.3,20.06,30.16c0.01,0.96-0.13,1.96,0.64,2.75
		c1.82,2,1.51,4.71,2.36,7.03l-0.08-0.09c2.06,8.5,2.16,17.42,5.57,25.65c0.99,2.4,2.23,4.75,2.53,7.4l-0.06-0.08
		c4.27,6.79,4.36,14.67,5.53,22.2c1.91,12.27,0.93,24.5-1.93,36.58c-0.14,0.58-0.48,0.78-0.89,1.02c-0.61,1.91-1.8,3.65-1.67,5.77
		c-0.89,2.52-1.49,5.17-3.39,7.21c-2.87,5.57-5.75,11.14-8.62,16.71c-0.52,1.81-1.89,3-3.11,4.3c-0.62,0.94-1.23,1.88-1.85,2.82
		c-0.72,1.66-1.88,2.98-3.23,4.15c-0.24,0.32-0.48,0.64-0.73,0.97c-1.1,1.98-2.7,3.53-4.37,5.01c-3.57,3.57-7.15,7.15-10.72,10.72
		c-23.41,18.28-50.2,28.98-78.94,35.49c-10.87,2.46-19.71,9.47-29.44,14.45c-0.33,0.17-0.39,0.88-0.58,1.34
		c-1.84,1.8-4.28,2.7-6.32,4.2c-12.33,5.94-25.09,10.45-38.8,11.81C1031.29,515.4,1026.65,516.15,1022.18,514.16z"/>
	<path class="st3" d="M282.05,935.71c1.95,1.35,1.83,3.8,2.95,5.63c3.09,5.04,8.09,7.22,13.09,9.41c2.56,1.12,4.74-1.41,3.55-4.49
		c-3.84-9.89-3.23-20.21-3.85-30.51c-0.85-14.24,4.53-26.49,10.96-38.32c6.74-12.38,16.54-21.86,29.65-27.93
		c8.5-3.93,16.96-4.64,25.74-2.34c23.91,6.28,41.41,29.17,41.48,53.85c0.02,8.33-0.15,16.63-2.5,24.7
		c-0.92,1.65-1.12,3.68-2.45,5.14c1.19-1.11,1.34-2.83,2.18-4.15c4.08-8.63,6.76-17.64,8.36-27.07c0.72-4.27,4.76-6.65,7.7-9.53
		c1.3-1.27,2.89-2.25,4.38-3.32c6.43-4.59,7.66-14.87,2.46-21.02c-0.91-1.08-1.58-2.19-1.52-3.57c0.53-11.58-0.64-23.2,1.57-34.74
		c1.23-6.45,3.43-12.07,8.65-16.35c2.59-2.12,4.67-4.8,5.24-8.28c0.42-2.58-0.22-4.58-3.04-5.46c-5.58-1.74-11.16,0.09-14.7,4.93
		c-2.26,3.09-4.82,2.95-7.59-0.78c-4.49-6.03-9.63-11.4-15.08-16.57c-11.66-11.06-25.42-17.38-41.22-19.61
		c-5.8-0.82-11.25,0.56-16.68,2.26c-2.39,0.75-4.76,1.65-7.32,1.13c-3.11-0.63-4.26-2.92-2.73-5.46c0.76-1.26,3.09-2.03,1.03-4
		c-1.69-1.62-3.62-2.49-5.9-1.57c-3.13,1.25-5.77,3.28-8.26,5.53c-9.37,8.46-17.12,18.12-22.6,29.58c-1.16,2.42-1.88,6.11-6.17,4.96
		c0.02-2.73,0.04-5.45,0.06-8.18c0.51-1.08,0.6-2.29,1-3.41c0.34-0.98,0.94-1.78,1.71-2.46c5.47-9.23,11.69-17.9,19.8-24.99
		c3.97-3.47,7.89-7.09,13.57-8.11c5.14-0.93,9.57,0.2,12.13,4.4c2.82,4.63,6.05,5.46,10.63,3.6c3.97-0.55,7.95-0.54,11.92,0
		c8.95,2.68,18.23,4.32,26.8,8.23c5.26,2.58,10.14,5.68,14.06,10.13l-0.03-0.05c6.03,3.05,9.73,8.67,14.4,13.2
		c1.17,1.14,2.02,2.61,3.86,2.79c2.6-2.13,6.04-1.99,8.96-3.28c5.87-1.55,11.48-1.87,15.89,3.39c4.29,6.22,4.08,11-0.81,18.09
		c-1.03,1.49-2.15,2.91-3.23,4.36c-0.87,3.3-3.93,4.83-5.89,7.25c-1.83,3.7-2.24,7.65-2.08,11.7c-1.07,2.67,0.18,5.56-0.77,8.25
		c-0.43,3.02-0.77,6.04-0.02,9.06c1.08,2.61-0.46,5.52,0.91,8.1c0.96-0.06,1.92-0.13,2.88-0.19c1.08,0.21,1.68,0.98,2.2,1.85
		c1.44,4.68-0.71,9.37,0.05,14.13c0.31,1.97-0.04,4.25,0.02,6.39c0.04,1.94-0.86,3.46-2.15,4.81c-1.92,2.99-5.5,3.45-8.17,5.3
		c-5.94,4.11-9.67,9.16-11.03,16.59c-3.05,16.66-11.17,30.68-24.36,41.49c-3.32,2.73-3.84,6.43-4.38,10.1
		c-0.49,3.34-1.74,5.62-5.16,6.39c-5.27,1.59-10.67,2.17-16.17,2c-0.81-0.18-1.52-0.52-1.96-1.26c-2.88-1.92-2.51-7.61-7.81-6.72
		c-2.98,0.63-5.96,0.55-8.94,0.04c-12.09,0.6-23.21-4.35-34.88-6.17c-3.21-0.5-5.91-0.89-8.29,2.24c-1.16,1.52-3.66,2.02-5.55,2.99
		c-0.93,0-1.86,0.11-2.78-0.14c-2.69-0.78-4.77-2.91-7.59-3.38c-0.9-0.35-1.39-1.31-2.37-1.54c-0.44-0.75-0.89-1.5-1.33-2.25
		c-0.71,0.02-1.62-0.2-1.96-0.77C282.54,951.73,282.3,945.37,282.05,935.71z"/>
	<path class="st4" d="M1103.17,241.05c0.31,3.39-0.84,6.9,0.82,10.18c0.9,0.61,1.39,1.56,1.36,2.54c-0.26,7.78,1.7,15.49,0.68,23.3
		c-0.9,6.9,0.08,13.96-1.65,20.8c-1.46,5.77-2.26,11.79-6.7,16.34c-2.36,1.08-4.02,0.35-5.07-1.96c-0.14-1.02,0.05-2.01,0.51-2.9
		c5.01-9.81,5.42-20.47,5.58-31.12c0.18-12.12,0.13-24.21-1.82-36.3c-1.15-7.15-0.11-14.6-0.09-21.91
		c0.01-4.42-0.91-8.61-2.52-12.63c-1.43-3.57-3.84-6.24-8-6.64c-4.6-0.43-8.5,1.17-11.78,4.33c-1.38,1.33-0.83,2.71,0.15,4.01
		c1,1.32,2.23,2.52,2.79,4.11c0.8,2.25,1.07,4.37-2.22,4.75c-3.23-0.76-4.13-4.08-6.41-5.92c-1.41-1.14-2.72-2.39-4.3-3.31
		c-15.58-11.11-33.23-15.19-51.96-13.95c-9.85,0.66-18.72,5.58-27.64,9.65c-1.06,0.48-2,1.21-3.09,1.61
		c-1.85,0.69-3.91,1.86-5.6,0.16c-1.69-1.71-0.24-3.35,0.86-4.84c1.45-1.96,0.47-3.08-1.41-3.73c-2.82-0.97-5.24-0.18-7.24,1.97
		c-1.6,1.72-2.8,3.73-3.84,5.81c-5.52,11.05-9.93,22.49-12.22,34.68c-0.46,2.43-1.28,4.32-3.53,6.13c-2.15,1.73-2.65,5.86-2.52,8.41
		c0.29,5.94-2.64,10.52-4.66,15.46c-1.21,2.96-0.81,5.11,1.11,7.26c4.95,5.56,7.32,12.07,7.96,19.46c0.53,6.09,3.99,11.19,6.8,16.46
		c-0.88,2.64-2.85,2.97-5.21,2.45c-5.03-4.87-6.89-11.39-7.78-17.83c-0.95-6.9-3.82-12.53-7.68-17.99
		c-1.79-2.53-3.97-4.99-3.58-8.48c0.18-1.03,0.7-1.9,1.39-2.66c2.61-3.98,4.94-8.17,4.44-13.08c-0.35-3.5,3.22-5.92,2.08-9.45
		c-0.12-0.98-0.13-1.95,0.08-2.92c0.23-0.97,0.74-1.78,1.45-2.46c2.47-1.34,4.09-3.28,4.35-6.18c0.49-1.78,0.83-3.59,1.19-5.4
		c0.3-1.2,1.39-1.93,1.83-3.05c3.63-10.85,7.08-21.79,14.12-31.09c0.91-1.08,1.65-2.36,3.17-2.74l-0.06,0.04
		c3.61-2.57,7.21-2.61,10.81,0.02c3.05,0.96,3.96,5.6,8.1,4.69c1.7-0.61,3.39-1.26,5.13-1.77l-0.07,0.05
		c2.61-1.54,5.52-2.24,8.39-3.06c1.9-1.56,4.5-1.14,6.55-2.27c1.58-0.88,3.49,0.25,5.04-0.82l-0.05,0.02
		c4.31-0.93,8.64-0.77,12.97-0.12c0.21,0.25,0.46,0.3,0.75,0.14c1.97,1.09,4.31-0.29,6.26,0.93l0.23,0.22l0.3-0.11
		c1.99,1.1,4.53-0.61,6.37,1.25c9.29,2.54,18.35,5.59,26.34,11.24c0.85,0.6,2.13,2.09,3.35,0.46c3.16-4.25,8.18-5.63,12.43-8.19
		c4.82-1.58,9.56-2.24,13.93,1.22l-0.06-0.05c2.44,0.77,2.41,3.08,3.09,4.95c1.22,3.02,2.45,6.04,3.67,9.06
		c1.83,1.34,0.04,3.59,1.27,5.09c-0.16,0.3-0.12,0.58,0.11,0.83c0.99,6.2,0.13,12.44,0.45,18.65c0.09,1.77-0.47,3.62,0.48,5.31
		l0.01,0.02c0.34,0.17,0.46,0.36,0.36,0.55C1103.39,240.95,1103.28,241.05,1103.17,241.05z"/>
	<path class="st5" d="M515.22,1282.43c1.93,1.97,0.69,4.09-0.16,5.79c-2.01,4.04-1.37,7.31,1.94,10.2c2.68,0.63,5.36,0.8,8.03-0.09
		c3.76-3.07,2.02-6.36,0.32-9.6c-1.9-3.63-1.08-5.33,3.13-6.58c9.07-2.69,8.39-2.1,11.51,5.75c0.96,2.41,0.85,5.18,2.31,7.45
		c0.71,2.31,0.59,4.62,0.07,6.94c-2.75,3.88-5.5,7.76-8.25,11.65c-1.04,3.39,0.24,6.95-0.74,10.34c-0.21,1.26-0.62,2.56,0.77,3.46
		c-0.14,2.48-1.49,3.73-3.93,3.86c-0.44-0.23-1.12-0.55-1.1-0.93c0.36-7.53-2.86-15.89,3.66-22.1c6.29-5.98,5.81-12.54,3.16-19.66
		c-0.6-1.62-0.96-3.88-3.63-3.04c-2.66,0.84-1.65,2.89-1.24,4.57c1.48,6.05,0.62,9.01-3.6,11.58c-3.73,2.28-7.66,3.58-11.71,0.93
		c-4.17-2.73-6.55-8.89-5.49-13.5c0.19-0.8,0.65-1.54,0.6-2.9c-2.71,4.48-3.03,8.29-0.76,12.88c2.4,4.86,3.76,10.21,7.28,14.57
		c1.83,2.28,0.3,5.19,0.68,7.79c1.12,7.57,0.89,15.17,0.33,22.77c-0.34,1.88-0.9,3.73-0.72,5.68c0.57,6.59,0.5,13.21,0.36,19.8
		c-0.08,3.76,1.9,3.98,4.65,3.95c2.67-0.03,4.83-0.01,4.61-3.91c-0.24-4.25,0.58-8.53-0.22-12.82c-0.29-1.58-0.15-3.35,1.45-4.48
		c1.15-0.38,2.19-0.3,3.04,0.67c0.57,5.01-0.48,10.08,0.57,15.07c-0.79,3.12,1.17,6.53-0.98,9.51c-1.9,1.31-3.91,0.76-5.91,0.36
		c-1.02-0.01-2.04-0.01-3.06-0.02c-2.21,0.77-4.5,0.11-6.73,0.4c-2.95,0.37-4.62-0.85-5.16-3.72c0.11-0.31,0.05-0.58-0.19-0.82
		c-0.06-8.32-1.26-16.6-0.86-24.94c0.02-5.92,0.03-11.84,0.05-17.76c0.89-3.5,0.36-7.05,0.34-10.57c0-1.3-0.28-2.57,0.66-3.67
		c-2.94-5.74-7.05-10.84-9.21-17c-0.57-2.64-0.53-5.28-0.03-7.92c0.5-2.22,1.01-4.43,1.49-6.65c0.66-3.1,2.33-4.89,5.72-4.55
		C510.79,1280.52,513.17,1280.59,515.22,1282.43z"/>
	<path class="st6" d="M448.57,853.83c-1.48-1.25-2.79-3.22-4.47-3.6c-5.53-1.27-3.36-5.02-2.22-7.46
		c5.76-12.38,13.52-23.53,22.04-34.17c3.51-4.38,7.03-8.51,12.88-10.03c5.33-1.39,5.86-1.26,6.62,4.22c0.53,5.3,0.5,10.6,0.02,15.9
		c-1.79,11.93-5.21,23.48-8.34,35.08c-1.7,6.31-3.49,7-12.01,6.68c-1.54,0-2.93-0.54-4.33-1.1c-2.3-0.68-4.64-1.24-6.72-2.51
		C450.68,856.07,449.46,855.14,448.57,853.83z"/>
	<path class="st7" d="M459.28,858.61c1.48,0.18,2.76,0.75,3.81,1.83c-6.33,12.44-10.5,25.71-14.95,38.88
		c-0.42,1.22-0.86,2.44-1.22,3.67c-1.44,4.79-1.8,4.99-6.64,2.79c-9.26-5.48-9.29-5.49-4.24-15.18c0.67-1.28,1.78-2.34,1.22-3.97
		c1.78-5.53,5.68-9.48,9.9-13.19c0.8,0.18,0.8,2.1,2.19,1.02c1.06-0.82,2.07-1.68,1.84-3.23c-0.32-2.18-1.24-4.06-2.77-5.66
		c-1.54-2.1-2.84-4.24-1.32-6.91c0.49-1.61,0.99-3.23,1.48-4.84c1.54,0,2.47,1.15,3.62,1.9c0.93,1.03,1.17,2.27,1.05,3.68
		C455.34,859.44,457.13,857.58,459.28,858.61z"/>
	<path class="st6" d="M949.01,228.76c0.56,2.32-0.41,4.4-0.99,6.55c-1.27,2.3-3.23,1.96-5.07,1.09c-2.69-1.27-5.55-1.8-8.42-2.35
		c-5.01-2.03-10.03-2.2-15.07-0.1c-1.16,0.36-2.32,0.7-3.54,0.81c-3.21-0.29-5.81-1.41-6.64-4.92c-0.18-0.95,0.57-1.88,0.03-2.84
		c-0.07-0.6-0.14-1.21-0.21-1.81c-0.63-2.31-0.58-4.62-0.03-6.94c-0.03-4.26,1.23-7.86,5.14-10.12c1.67-0.37,3.37-1.05,4.91,0.37
		c0.42,1.07,1.18,1.08,2.08,0.67c1.98-0.71,3.96-0.61,5.95-0.07c4.19,1.3,8.52,2.29,12.07,5.11c1.18,0.8,2.17,1.79,2.97,2.97
		c1.56,3.38,3.13,6.77,4.69,10.15C947.72,227.6,948.49,228,949.01,228.76z"/>
	<path class="st8" d="M531.48,1353.43c-1.08-0.02-2.16-0.04-3.24-0.07c-5.85,2.46-8.43,1.77-12-3.16c-0.33-2.07,0.62-3.92,1.01-5.86
		c2.03-4.4,5.34-7.77,8.83-11c1.15-1.07,2.15-2.58,4.12-2.1c1.32-1.17,2.63-2.34,3.95-3.51c2.32-2.09,4.44-4.55,7.99-4.45
		c-1.02,1.98-2.82,3.59-2.94,6.01c-3.99,5.3-10.2,8.42-13.85,14.06c-0.78,1.2-2.74,2.14-2.06,3.64c0.8,1.78,2.94,0.98,4.5,1.01
		c4.84,0.08,9.46-1.33,14.11-2.43c2.41-0.57,4.86-0.86,7.31-1.2c3.44,0.24,3.01,2.72,2.9,5.01c-0.53,0.62-1.39,0.43-2.01,0.82
		c-4.7,0.75-9.04,3.09-13.89,3.2C534.64,1353.94,533.06,1353.98,531.48,1353.43z"/>
	<path class="st9" d="M910.01,228.9c0.31,3.76,3.56,4.12,6.11,5.29c0.32,1.97-1.38,2.08-2.49,2.42
		c-9.77,2.92-18.83,7.27-27.11,13.22c-0.68,0.49-1.48,0.74-2.33,0.37c-1.01-3.59-3.21-1.78-4.98-0.96
		c-2.03,0.94-3.59,2.86-6.06,2.94c-0.47-1.19,0.38-1.51,1.22-1.82l-0.08,0.05c1.21-1.21,2.49-2.32,4.01-3.12l-0.07,0.05
		c1.36-1.06,2.53-2.39,4.19-3.04c2.92-2.07,5.85-4.14,8.77-6.21c1.92-1.17,3.97-2.07,6.09-2.83c3.12-0.98,5.56-2.99,7.91-5.14
		C906.83,229.82,908.19,228.46,910.01,228.9z"/>
	<path class="st10" d="M447.09,858.67c-0.61,2.78,1.64,4.54,2.41,6.83c1.31,3.33,0.16,5.99-2.26,8.31
		c-3.33,4.27-6.66,8.55-9.99,12.82c-0.65,0.06-1.31,0.11-1.96,0.17c0.39-1.73,0.78-3.46,1.17-5.19c1.68-3.4,4.51-6.08,6.07-9.56
		c2.62-5.85,1.71-7.83-4.33-9.42c-0.64-0.17-1.22-0.5-1.79-0.82c-0.41-0.73-0.82-1.46-1.24-2.19c0.33-1.11,1.43-0.66,2.12-1.04
		c1.98-0.59,3.96-0.61,5.94,0.01C444.48,860.06,445.78,859.67,447.09,858.67z"/>
	<path class="st11" d="M364.06,967.43c0.78,0.14,1.57,0.27,2.35,0.41c2.47,1.48,2.1,5.93,5.23,6.08c2.67,0.13,3.91-3.27,6.08-4.74
		c0.81-0.55,1.59-1.24,2.69-0.67c1.77,1.44,0.52,2.64-0.39,3.75c-0.94,1.14-2.05,2.16-3.1,3.21c-2.2,2.19-4.28,5.06-7.92,3.72
		C366,978.06,363.27,970.98,364.06,967.43z"/>
	<path class="st12" d="M380.4,968.5c-2.54,1.36-4.24,3.66-6.12,5.7c-2.56,2.78-4.28,2.58-5.66-0.92c-0.72-1.82-1.48-3.63-2.22-5.45
		c5.29,0.02,10.45-1.74,15.79-1.14C381.59,967.29,381,967.9,380.4,968.5z"/>
	<path class="st13" d="M285.83,954.75c1.01-0.12,1.93,0,2.53,0.96c2.73,1.38,1.95,4.74,4.03,6.9c1.66-0.78,1.75-3.38,3.75-3.84
		c0.99-0.09,1.83,0.18,2.43,1.03c-1.41,3.33-1.76,8.48-6.28,8.17c-4.28-0.3-4.53-5.42-5.78-8.87
		C286.02,957.75,286.04,956.21,285.83,954.75z"/>
	<path class="st14" d="M360.23,758.62c-3.97,0-7.95,0-11.92,0"/>
	<path class="st0" d="M1075.1,501.89c1.5-1.92,3.43-3,5.91-2.96c1.43,25.25,1.9,50.61,4.57,75.73c2.63,24.79,6.02,49.53,9.07,74.29
		c1.56,12.7,3.03,25.43,2.71,38.3c-0.47,18.89,1.31,37.69,2.11,56.54c1.08,25.6,0.71,51.23,2.64,76.84
		c3.11,41.32,6.04,82.68,6.82,124.12c0.48,25.26-0.85,50.51-1.88,75.76c-0.45,10.93,0.38,21.93,0.92,32.89
		c0.36,7.35-0.29,14.64-0.53,21.95c-0.58,18.13-1,36.29-2.18,54.39c-1.96,30-2.46,60.19-9.95,89.57
		c-5.09,19.96-9.86,40.02-17.8,59.15c-1.69,4.08-4.56,7.71-4.7,12.49c-0.07,2.34-3.29,2.53-4.39,4.49
		c-1.96,3.48-4.18,6.81-6.17,10.27c-12.87,22.49-25.93,44.82-43.23,64.35c-4.55,5.13-9.92,9.33-14.76,14.13
		c-17.4,17.26-36.52,32.43-56.26,46.95c-12.71,9.35-24.91,19.41-37.46,29.01c-15.81,12.1-33.42,20.46-51.61,27.94
		c-26.04,10.71-52.8,19.25-80.04,26.38c-11.01,2.88-22.13,3.87-33.42,3.94c-12.2,0.08-24.15,2.63-36.22,3.92
		c-20.94,2.23-41.52-1.59-62.21-3.52c-25.03-2.32-50.02-4.87-74.45-11.16c-1.1-0.28-2.34-0.9-3.29,0.14
		c-2.49,2.73-3.69,1.64-4.91-1.23c-0.9-2.13-3.41-1.75-5.25-2.2c-22.3-5.46-44.58-11.05-66.44-18.1c-8.87-2.86-18-5.68-25.59-11.05
		c-9.11-6.45-19-11.62-28-18.21c-21.62-15.84-43.46-31.37-65.02-47.29c-15.09-11.14-27.72-24.78-39.56-39.32
		c-24.25-29.79-42.59-63.03-58.47-97.76c-3.38-7.4-5.96-15.16-8.97-22.73c-0.9-2.27-1.36-4.84-3.91-6.13
		c-0.51-0.26-0.99-0.99-1.08-1.57c-2.77-17.01-10.87-32.27-15.91-48.53c-1.38-4.44-3.64-8.7-4.41-13.23
		c-3.02-17.78-13.28-33.28-15.88-51.15c-0.17-1.15-0.53-2.29-0.53-3.44c0.03-12.47-1.61-24.83-2.22-37.27
		c-1.44-29.08-0.64-58.16-0.8-87.24c-0.08-13.14-0.8-26.27-1.38-39.4c-0.65-14.65,1.8-29.19,1.37-43.83
		c-0.35-12.01,1.59-23.84,2.84-35.74c1.71-16.37,2.43-32.84,3.43-49.28c1.8-29.72,3.61-59.43,5.16-89.16
		c0.64-12.28,1.33-24.55,0.98-36.91c-0.36-12.93,2.13-25.85,1.8-38.85c-0.56-22.28-1.14-44.57-1.73-66.85
		c-0.22-8.15-0.49-16.3-0.74-24.45c-0.29-0.8-0.26-1.63-0.27-2.46c-0.1-7.2,1.09-7.92,7.78-4.66c1.16,1.58,1.26,3.44,1.19,5.26
		c-0.57,15.32,1.6,30.58,1.04,45.89c-0.13,3.68,0.61,7.29,0.86,10.94c0.24,3.57,2.19,4.89,5.41,5.26c2.99,0.35,6,0.1,8.98,0.4
		c3.04,0.3,5.87,1.34,5.86,4.87c-0.02,3.52-2.87,4.56-5.89,4.87c-3.15,0.32-6.33,0.28-9.49,0.1c-3.43-0.2-5.14,1.12-4.61,4.61
		c1.47,9.63,0.76,19.23-0.02,28.87c-0.37,4.63-0.33,9.29-0.89,13.93c-0.69,5.61-0.59,11.24-0.33,16.91
		c0.56,12.31-0.77,24.58-1.59,36.85c-0.09,1.33-0.24,2.65-0.26,3.98c-0.17,10.25,0.44,10.03,8.6,8.91c3.8-0.52,7.65,0.38,11.33,1.51
		c2.59,0.8,4.46,2.5,4.04,5.49c-0.4,2.85-2.66,3.62-5.14,3.76c-4.83,0.29-9.66,0.01-14.49,0.16c-4.8,0.14-5.49,0.82-4.58,5.26
		c0.65,3.18,0.57,6.31,0.09,9.43c-3.93,25.37-4.29,51.02-5.9,76.57c-0.19,3-0.93,5.92-0.93,8.93c0,4.9,0.98,5.84,5.96,5.42
		c2.65-0.22,5.27-0.79,7.95-0.75c1.17,0.02,2.33,0,3.5,0.11c5.76,0.53,9.21,3.18,8.9,6.81c-0.29,3.38-3.11,5.03-8.99,5.07
		c-4.83,0.03-9.68,0.35-14.47-0.37c-3.2-0.48-4.76,0.7-4.8,3.93c-0.01,0.66-0.06,1.33-0.06,2c0.13,34.95-1.89,69.88-0.91,104.82
		c0.28,10.13,1.07,20.26,0.93,30.41c-0.05,3.64,1.53,5.14,5.25,4.56c3.79-0.59,7.54-1.24,11.23-2.35
		c5.05-1.51,10.22-1.98,15.11,0.47c3.36,1.69,5.8,4.11,3.8,8.38c-3.55,3.66-7.72,0.56-11.57,1.05c-0.49,0.17-0.99,0.28-1.5,0.37
		c-1.77,0.27-3.57,0.41-5.27,1.06c-0.54,0.17-1.08,0.28-1.64,0.35c-3.95,0.56-7.87,1.36-11.89,1.13c-2.09-0.12-3.46,0.5-3.46,3.04
		c0.01,18.61-0.5,37.21,0.28,55.81c0.23,0.84,0.36,1.69,0.43,2.56c0.23,6.94,0.01,13.87,0.48,20.82
		c0.73,10.78,6.43,19.72,10.02,29.44c3.33,4.57,4.19,10.02,5.74,15.28c5.01,16.93,11.12,33.49,17.81,49.83
		c1.32,3.22,1.44,7.59,4.25,9.36c3.19,2.01,6.14-2.35,9.58-2.66c0.49-0.04,0.97-0.24,1.46-0.34c6.21-1.35,12.45-1.53,18.73-0.64
		c0.83,0.3,1.47,0.83,1.96,1.56c1.38,4.25-1.49,5.98-4.56,7.49c-2.91,1.43-6.14,1.02-9.23,1.31c-0.46,0.14-0.93,0.25-1.4,0.34
		c-1.54,0.29-3.15,0.24-4.65,0.79c-0.42,0.17-0.84,0.31-1.26,0.45c-2.29,1.58-6.79,0.6-6.26,5.42
		c6.65,21.54,16.89,41.43,27.85,60.99c4.78,8.54,9.07,17.35,14.23,25.67c4.37,7.03,8.57,14.23,15.41,19.31
		c8.79,15.96,21.56,28.58,34.4,41.18c2.58,2.54,4.61,2.67,7.11,0.04c4.13-4.34,8.32-8.61,13.58-11.65c2.03-1.17,4.07-2.28,6.36-2.8
		c2.16-0.5,4.44-0.79,5.95,1.27c1.45,1.98,0.32,3.77-0.96,5.42c-5.14,4.24-11.21,7.19-16.15,11.73c-4.49,4.13-4.52,4.88,0.48,8.49
		c20.53,14.81,41.1,29.55,61.43,44.65c21.87,16.25,45.9,28.15,72.68,34.29c13.63,3.12,27.04,7.19,40.68,10.35
		c5.96,1.38,6.25,1.25,7.73-4.85c0.86-3.56,1.39-7.21,2.94-10.57c1.2-2.59,2.98-4.85,6.12-3.79c3.56,1.2,2.54,4.16,1.69,6.73
		c-1.25,3.81-1.9,7.76-2.89,11.63c-0.87,3.39,0.45,4.94,3.67,5.65c13.34,2.94,26.71,5.74,40.33,7.14
		c20.52,2.1,41.08,3.94,61.56,6.42c12.35,1.49,24.59,0.39,36.83-1.21c7.59-0.99,15.12-2.32,22.84-2.28
		c5.52,0.03,6.52-1.13,7.72-6.48c1.02-4.55,1.81-9.18,3.72-13.46c1.19-2.66,2.38-6.3,6.29-4.79c3.51,1.36,2.39,4.71,1.52,7.4
		c-1.18,3.66-2,7.39-2.8,11.13c-1.03,4.79-0.21,5.7,4.76,5.04c3.96-0.52,7.93-1.09,11.81-2.1c27.76-7.22,55.09-15.76,81.59-26.8
		c17.53-7.3,34.95-14.75,49.99-26.75c5.83-4.65,6.03-4.47,3.49-11.5c-1.08-2.99-2.48-5.82-3.85-8.67c-0.87-1.8-1.69-3.63-2.02-5.62
		c-0.31-1.92-0.18-3.77,1.84-4.71c2.21-1.02,3.96,0.01,5.15,1.81c2.57,3.91,4.44,8.19,6.27,12.48c2.41,5.68,3,5.95,7.59,2.1
		c13.16-11.03,27.35-20.71,40.71-31.47c3.38-2.72,6.36-5.88,9.71-8.62c2.63-2.16,2.45-4.01-0.29-5.92
		c-4.38-3.04-8.66-6.22-13.14-9.11c-1.68-1.08-3.35-2.2-4.59-3.81c-1.44-1.87-2.04-3.92-0.44-5.94c1.51-1.91,3.54-1.57,5.46-0.66
		c2.56,1.21,4.99,2.7,7.32,4.3c4.53,3.12,9.45,5.64,13.8,9.01c2.3,1.78,4.25,1.46,6.15-0.52c12.21-12.72,25.36-24.46,36.17-38.59
		c12.62-16.49,22.78-34.39,32.98-52.33c1.48-2.6,1.15-4.21-1.39-5.73c-2.74-1.63-5.77-2.6-8.57-4.08c-2.5-1.32-4.73-3.09-3.52-6.26
		c1.3-3.4,4.18-2.56,6.82-1.83c3.06,0.85,5.89,2.32,8.84,3.46c4.84,1.88,5.78,1.7,7.68-2.97c3.82-9.39,7.7-18.76,10.31-28.6
		c5.75-21.73,11.75-43.4,14.07-65.87c0.34-3.31,0.3-6.66,0.91-9.94c0.54-2.91-0.89-4.31-3.55-4.99c-3.08-0.78-6.14-1.51-9.35-1.45
		c-1.66,0.03-3.34,0.06-4.99-0.21c-2.3-0.38-4.35-1.39-4.57-3.89c-0.23-2.59,1.77-3.83,4.01-4.36c4.89-1.15,9.81-1.76,14.85-0.76
		c4.76,0.94,4.78,0.62,5.17-4.34c1.86-23.22,2.09-46.5,3.25-69.74c0.62-12.49,0.51-24.95,0.65-37.42c0.1-8.63-1.17-9.5-9.58-8.5
		c-5.64,0.67-11.32,0.32-16.98,0.24c-2.55-0.04-5.44-0.35-5.57-3.66c-0.13-3.37,2.72-4.59,5.42-4.71
		c6.16-0.25,12.25-1.27,18.42-1.33c7.32-0.07,7.35-0.06,7.33-7.1c-0.03-13,1.41-25.89,2.66-38.8c0.79-8.13,0.91-16.36,0.1-24.44
		c-1.25-12.44-0.21-24.95-1.67-37.37c-0.67-5.71-0.29-5.71-5.97-5.9c-3.18-0.11-6.29-0.13-9.42,0.59c-2.62,0.6-5.17,0.28-6.08-2.78
		c-0.87-2.95,0.94-4.66,3.32-5.95c3.9-2.12,8.16-2.95,12.51-3.06c3.48-0.09,4.57-1.68,4.6-4.97c0.06-6.67-0.87-13.27-1.23-19.91
		c-1.12-20.41-3.2-40.76-3.9-61.21c-0.03-0.83-0.16-1.66-0.28-2.48c-0.96-6.63-0.96-6.63-7.82-6.66c-3.33-0.01-6.67,0.11-9.99-0.09
		c-3.04-0.18-5.9-1.1-6.06-4.64c-0.15-3.27,2.79-3.68,5.23-4.29c4.1-1.02,8.28-0.79,12.44-0.74c3.45,0.04,5.05-0.9,4.81-4.91
		c-0.6-9.97-0.4-19.98-0.18-29.96c0.37-16.67-1.78-33.21-2.04-49.83c-0.06-3.66-1.74-4.68-5.07-4.02c-2.8,0.55-5.64,0.86-8.4-0.1
		c-2.36-0.82-4.19-2.23-4-5.04c0.18-2.66,2.13-3.55,4.41-3.98c2.62-0.5,5.24-1.04,7.89-1.32c3.53-0.37,4.92-1.95,5.29-5.75
		c1.53-15.89-0.86-31.53-2.51-47.2c-1.11-10.59-2.37-21.16-3.65-31.73c-0.68-5.59-1.24-6.05-6.95-5.48
		c-3.66,0.36-7.33,0.51-10.97-0.06c-2.56-0.4-5.16-1.4-5.23-4.44c-0.08-3.36,2.73-3.8,5.3-3.94c4.02-0.22,7.9-1.2,11.83-1.93
		c2.82-0.52,3.95-2.06,3.47-4.94c-4.43-26.71-4.53-53.67-4.37-80.63C1074.82,508.7,1072.71,505.21,1075.1,501.89z"/>
	<path class="st15" d="M241.25,569.97c-0.66-0.06-1.37,0-1.98-0.21c-3.96-1.34-5.61-0.06-4.95,4.15c0.15,0.95-0.15,1.96-0.24,2.95
		c0.35-6.85-3.64-7.54-9.54-8.64c-24.66-4.6-45.81-15.72-61.13-36.31c-3.57-4.8-7.55-9.33-10.18-14.77
		c-1.06-2.2-3.05-2.69-5.13-3.47c-19.31-7.23-37.5-15.9-50.4-33.21c-5.78-7.76-7.58-16.36-8.27-25.18
		c-1.97-25.11,1.52-49.13,16.96-70.15c0.69-0.94,1.26-2.13,2.2-2.69c11.82-7.05,14.13-20,18.39-31.22
		c10.5-27.66,27.15-50.04,52.9-64.77c29.8-17.04,61.84-25.79,96.29-20.12c15.39,2.53,29.83,8.61,39.04,22.65
		c1.25,1.91,2.46,1.96,4.55,1.57c14.68-2.77,29.4-3.28,44.1-0.04c8.47,1.86,15.66,6.45,22.91,10.83
		c18.4,11.13,32.37,26.56,39.75,46.64c6.25,17.01,13.08,34.34,9.52,53.32c-0.51,2.7,0.67,5.32,1.77,7.7
		c7.53,16.26,10.5,33.68,12.02,51.23c1.27,14.6-1.99,28.28-9.92,41.38c-14.66,24.21-36.53,35.29-63.43,38.89
		c-10.54,1.41-20.99,3.95-31.75,2.35c-1.58-0.24-2.98,0.32-4.15,1.35c-7.04,6.23-15.69,9.27-24.34,12.31
		c-5.97,2.09-11.91,4.24-17.86,6.38c-1.2,0.43-2.72,0.39-3.15,2.03c-0.25,0.08-0.51,0.13-0.78,0.14c-2.52-0.68-4.86-0.01-7.16,0.97
		c-1.36,1.33-3.03,1.97-4.89,2.23c-8.22,1.14-16.4,2.7-24.76,2.19c-3.19-0.21-6.38-0.29-9.49,0.7
		C245.75,571.38,243.34,571.65,241.25,569.97z"/>
	<path class="st16" d="M1075.1,501.89c1.83,14.08,0.35,28.25,1.18,42.34c0.98,16.5,0.91,33.13,4.62,49.38
		c0.7,3.05-0.32,4.85-3.52,5.22c-4.93,0.58-9.67,2.42-14.74,2.1c-1.6-0.1-3.11,0.4-3.32,2.27c-0.22,1.88,1.26,2.69,2.72,3.06
		c4.58,1.16,9.25,0.93,13.84,0.16c5.73-0.96,6.42-0.75,7.11,4.94c1.17,9.69,1.81,19.45,3.24,29.1c1.8,12.13,2.41,24.36,3.56,36.54
		c0.62,6.54-0.38,13.23-0.7,19.85c-0.09,1.82-1.56,1.8-2.91,2.01c-3.76,0.6-7.49,1.38-11.26,1.9c-1.77,0.24-3.39,0.43-3.71,2.54
		c-0.35,2.28,1.15,3.37,2.99,3.98c2.94,0.97,5.84,0.47,8.82-0.19c5.23-1.16,5.84-0.32,6.16,5.03c1.59,26.38,2.28,52.78,1.98,79.2
		c-0.01,0.99,0.03,2.03,0.35,2.95c1.26,3.65-0.69,4.38-3.74,4.43c-5.3,0.09-10.63-0.39-15.89,0.93c-1.69,0.42-3.64,0.47-3.53,2.63
		c0.11,2.33,1.92,3.4,4.17,3.42c5.16,0.06,10.33,0.16,15.49,0c2.88-0.09,4.05,0.67,4.23,3.85c0.81,14.89,1.91,29.76,2.92,44.63
		c0.99,14.54,1.9,29.09,3.03,43.63c0.34,4.39-0.74,6.36-5.62,6.01c-4.47-0.32-8.87,0.78-12.92,3.01c-1.81,1-3.08,2.17-2.41,4.3
		c0.68,2.16,2.42,2.71,4.37,1.83c4.43-2,9.14-0.09,13.65-1.15c2.32-0.54,3.82,0.69,3.83,3.3c0.01,4.98,0.85,9.98,0.8,14.88
		c-0.16,14.48,1.72,28.88,1.2,43.35c-0.63,17.39-3.63,34.65-2.96,52.11c0.11,2.89-1.55,3.31-3.82,3.12
		c-7.34-0.64-14.55,1.35-21.88,1.04c-1.28-0.05-2.61,0.38-3.85,0.79c-1.33,0.43-2.44,1.29-2.26,2.88c0.18,1.58,1.37,2.29,2.83,2.27
		c6.65-0.09,13.34,0.71,19.93-0.5c7.97-1.45,9.68-0.13,10.01,8.08c0.79,19.63-0.39,39.25-1.28,58.82
		c-0.58,12.74,0.1,25.56-1.7,38.25c-0.77,5.43-1.19,10.88-1,16.37c0.07,2.09-0.65,3.21-3,2.4c-5.49-1.89-11.03-1.82-16.69-0.61
		c-2.2,0.47-4.91,0.48-4.77,3.17c0.16,2.95,3,3.14,5.42,2.94c5.06-0.42,9.87,0.67,14.74,1.87c2.82,0.69,3.48,2.12,3.21,4.59
		c-2.41,22.08-6.26,43.86-12.19,65.33c-4.06,14.72-8.59,29.19-14.51,43.25c-1.3,3.09-2.84,3.67-5.65,2.57
		c-4.33-1.7-8.69-3.32-13.01-5.04c-1.7-0.68-3.36-1.06-4.23,0.98c-0.86,2.02,0.05,3.51,1.99,4.45c4.17,2.04,8.64,3.46,12.48,6.19
		c1.33,0.94,2.43,1.37,1.15,3.37c-8.49,13.3-15.32,27.58-24.14,40.7c-13.81,20.56-31.13,38-48.84,55.11
		c-1.63,1.57-2.96,1.62-4.72,0.11c-6.6-5.64-14.41-9.47-21.58-14.27c-1.48-0.99-3.31-2.32-4.88-0.34c-1.78,2.24-0.44,4.2,1.41,5.53
		c5.66,4.08,11.42,8,17.16,11.97c4.87,3.37,4.51,3.71,0.15,7.83c-16.1,15.2-35.11,26.72-51.73,41.25c-4.99,4.36-5.19,4.19-7.88-2.04
		c-1.85-4.27-3.84-8.48-5.84-12.68c-0.85-1.77-1.71-4.12-4.26-3.15c-3.09,1.18-1.49,3.64-0.74,5.5c2.29,5.7,4.64,11.38,7.2,16.96
		c1.05,2.29,0.62,3.8-1.28,5.13c-12.65,8.85-25.09,17.9-39.53,23.94c-31.42,13.15-63.36,24.67-96.4,33.03
		c-5.12,1.3-10.35,2.23-15.67,2.57c-3.61,0.23-4.96-0.98-3.93-4.62c1.35-4.78,2.49-9.62,3.83-14.41c0.59-2.1,1.85-4.56-0.93-5.6
		c-2.93-1.09-3.48,1.94-4.28,3.76c-2.13,4.89-3.37,10.07-4.02,15.35c-0.5,4.03-2.52,6.38-6.55,6.35
		c-18.13-0.12-35.82,5.46-54.01,4.08c-10.07-0.76-20.1-1.98-30.14-2.99c-9.72-0.98-19.43-2-29.15-2.92
		c-17.82-1.69-35.45-4.45-52.87-8.69c-3.53-0.86-4.31-1.98-3.25-5.34c1.54-4.89,1.8-10.14,4.01-14.85c0.74-1.59,0.68-3.08-0.93-3.85
		c-1.76-0.84-3.43,0.02-4.24,1.62c-1.5,2.96-2.34,6.15-2.93,9.45c-1.89,10.63-1.95,10.51-12.44,7.96
		c-21.45-5.21-42.85-10.58-63.81-17.56c-19.04-6.34-35.26-17.79-51.23-29.34c-14.78-10.69-29.57-21.39-44.22-32.26
		c-5.73-4.25-11.64-8.27-17.54-12.27c-2.17-1.47-2.44-2.54-0.45-4.57c6.12-6.24,13.36-10.89,20.83-15.25c5,0.57,9.57,2.4,13.89,4.86
		c2.65,1.51,5.44,2.25,8.78,2.44c-1.28-2.47-3.12-4.17-4.48-6.2c-1.6-2.39-1.6-4.76,0.67-6.7c2.48-2.11,4.24-0.33,5.96,1.37
		c10.55,10.42,22.43,19.12,34.51,27.68c8.21,5.83,17.31,9.83,25.94,14.78c2.73,1.57,4.4,3.36,0.76,5.81
		c-2.98,3.76-5.98,7.51-8.93,11.29c-1.09,1.39-1.86,3.03-0.18,4.39c1.97,1.6,3.24,0.17,4.49-1.38c4.51-5.6,10.34-9.83,15.5-14.76
		c1.88-1.79,3.62-1.84,5.85-0.78c17.04,8.1,35.08,12.84,53.51,16.59c8.38,1.7,16.11,6.12,24.68,7.54c2.83,3.13,5.09,7.08,10.11,7.06
		c2.77,5.69,6.59,10.6,10.87,15.26c4.7,5.12,6.96,5.21,11.28-0.3c1.13-1.43,2.38-2.76,3.46-4.22c0.92-1.19,1.74-2.46,2.66-3.65
		c0.45-0.46,1.08-0.66,1.56-1.07c5.54-2.08,11.53-0.39,17.12-2.02c2.66,0.74,5.32,0.83,7.97-0.06l-0.02,0.01
		c6.66-0.04,13.19-2.4,19.92-1.1c1.34,5.09-1.1,9.71-1.9,14.53c-0.7,4.18-2.57,8.19-1.92,13.02c2.77-0.94,2.91-3.26,3.38-5.14
		c1.65-6.59,3.15-13.21,4.96-19.76c0.48-1.73,0.64-3.67,2.75-4.39c6.92-0.86,13.9-1.22,20.81-2.14c2.75-0.33,5.55-0.45,8.24-1.04
		c5.18-1.14,9.38,1.6,13.9,3.14c2.73,3.51,4.11,7.83,6.95,11.3c3.64,4.44,7.02,4.3,10.09-0.63c2.17-3.48,3.24-7.56,5.91-10.77
		c2.17-1.15,2.43-4.17,4.92-5.01c6.3,3.46,12.7,1.01,18.9-0.09c14.99-2.65,30.21-4.17,44.65-9.55c11.11-4.14,11.26-3.88,11.36,8.03
		c0.02,2.56,0.42,5,1.53,7.24c0.75,1.51,2.03,2.86,4.01,1.95c1.67-0.76,1.65-2.29,1.31-3.87c-1.02-4.7-1.58-9.44-1.82-14.26
		c-0.16-3.33,1.08-5.01,4.02-6.52c13.17-6.75,26.45-13.36,39.22-20.82c13.61-7.96,25.84-18.03,38.57-27.33
		c2.15-1.57,4.37-3.02,6.5-4.6c5.31-3.95,5.34-3.98,8.67,1.87c1.23,2.17,2.41,4.39,3.36,6.69c1.34,3.26,4.03,4.79,7.06,5.87
		c1.92,0.68,4.24,1.08,5.26-1.23c0.99-2.23-1.36-2.64-2.71-3.39c-4.17-2.31-5.17-6.78-7.19-10.53c-3.91-7.28-4.16-7.71,1.98-12.46
		c19-14.68,34.32-32.73,48.49-51.86c1.69-2.29,2.65-2.58,4.94-1.01c6.29,4.28,13.63,7.04,18.64,13.15c0.4,0.48,1.08,0.78,1.68,1.04
		c2.19,0.98,4.61,3.25,6.74,0.69c1.92-2.31-0.57-4.16-1.79-6.06c-4.65-7.28-12.01-10.77-19.58-13.87c-3.78-1.55-4.21-3.23-1.78-6.62
		c10.1-14.07,19.04-28.95,25.91-44.79c6.83-15.75,15.68-30.82,18.37-48.17c0.69-4.46,3.58-3.25,5.83-2
		c5.28,2.93,11.09,4.43,16.58,6.76c2.58,1.09,5.52,1.79,6.94-1.33c1.49-3.25-1.5-4.31-3.77-5.26c-6.71-2.83-13.26-6.18-20.51-7.45
		c-2.78-0.49-2.61-2.15-2.24-3.99c2.17-10.7,4.32-21.41,6.67-32.07c1.79-8.12,2.35-16.38,3.06-24.61
		c0.98-11.38,3.01-22.71,2.1-34.21c-0.23-2.94,1.65-3.2,3.87-3.08c3.97,0.21,7.82,1.49,11.87,1.09c2.6-0.26,5.55-0.49,5.54-3.67
		c0-3.26-2.89-3.69-5.56-3.39c-4.37,0.49-8.56-1.12-12.89-0.96c-2.68,0.1-2.83-1.59-2.86-3.6c-0.07-6.14-0.4-12.25-0.83-18.38
		c-1.46-20.91-1.53-41.88-1.08-62.82c0.26-11.93,1.17-23.84,1.97-35.75c0.49-7.29,2.99-8.73,10.62-7.73
		c4.59,0.6,9.31,0.41,13.96,0.31c2.57-0.06,5.68-1.06,5.77-3.74c0.11-3.14-3.18-4.09-5.86-4.08c-5.63,0.01-11.28-0.65-16.91,0.66
		c-3.07,0.71-5.61,1.41-6.04-4.21c-0.47-6.14,1.63-11.84,1.21-17.65c-1.35-18.9-0.38-37.84-1.53-56.76
		c-0.68-11.08-1.18-22.22-1.35-33.35c-0.04-2.37,0.47-3.82,3.27-3.71c5.35,0.21,10.35-2.29,15.75-2.1c2.15,0.08,4-1.24,3.8-3.68
		c-0.18-2.15-2.12-2.13-3.84-2.26c-4.41-0.34-8.52,1.09-12.75,1.94c-6.85,1.39-7.23,1.07-7.12-5.76c0.1-6.13-0.05-12.24,0.71-18.4
		c0.85-6.89-0.14-13.9-0.61-20.86c-0.88-13.1,1.64-26.18,0.83-39.32c-0.13-2.16,0.5-3.33,2.95-3.58c4.27-0.43,8.5-1.28,12.76-1.87
		c2.2-0.3,4.14-1.2,4.08-3.53c-0.07-2.83-2.58-2.42-4.55-2.56c-4.04-0.29-7.93,0.8-11.82,1.52c-2.41,0.45-3.02,0.08-3.58-2.36
		c-1.56-6.87-1.06-13.89-1.59-20.8c-1.12-14.69-2.59-29.34-4.07-44c-0.5-4.93-0.37-9.93-1.11-14.87c-0.38-2.51-0.32-4.12,3.56-3.68
		c4.69,0.53,9.57-0.41,14.34-0.93c1.93-0.21,3.59-1.51,3.64-3.55c0.05-2.1-1.08-3.59-3.41-4.27c-2.88-0.84-5.57-0.06-8.33,0.28
		c-1.14,0.14-2.25,0.62-3.39,0.73c-4.36,0.43-7.35,0.57-7.9-5.86c-1.56-18.11-5.1-35.99-5.79-54.26
		c-0.41-10.85-0.98-21.83-3.52-32.53c-0.74-3.12-0.53-5.44,3.91-5.37c3.43,0.05,6.86-1.04,10.39-0.87c2.26,0.11,4.17-1.05,4.21-3.33
		c0.04-2.6-2.02-3.73-4.46-3.59c-3.47,0.21-6.92,0.63-10.38,1.02c-3.17,0.36-4.62-1.16-4.85-4.19c-0.66-8.42-1.46-16.83-1.97-25.25
		c-0.13-2.14-0.68-3.86-2.07-5.4C1040.95,514.92,1058.22,509.23,1075.1,501.89z"/>
	<path class="st1" d="M752.02,1446.03c1.64-0.84,3.38-0.92,5.16-0.7C755.62,1446.76,753.81,1446.37,752.02,1446.03z"/>
	<path class="st17" d="M241.25,569.97c2.33-0.03,4.66-0.05,6.99-0.08c3.04,0.17,6.08,0.37,8.99-0.86
		c10.17,0.38,20.09-1.68,30.08-3.03c-1.34,8.24-1.03,16.55-1.03,24.85c0,3.81-1.59,5.3-5.49,5.11c-3.42-0.17-6.42-1.64-9.65-2.37
		c-2.56-0.58-3.94,0.2-4.65,2.32c-0.7,2.09,0.43,3.52,2.39,4.28c4.19,1.63,8.4,3.43,13.02,2.64c2.58-0.44,3.46,0.09,3.44,2.88
		c-0.11,18.47,0.4,36.96-0.24,55.41c-0.39,11.24-2.17,22.43-1.81,33.73c0.08,2.73-1.11,4-3.85,3.94c-2.5-0.06-5,0-7.49,0.01
		c-2.45,0.01-3.7,1.2-3.64,3.69c0.05,2.27,1.28,3.3,3.46,3.35c0.33,0.01,0.67,0.01,1,0.02c9.54,0.47,9.53,0.47,9.52,9.83
		c-0.01,13.48,0.1,26.96-0.05,40.44c-0.07,6.29-1.43,12.66-0.73,18.84c0.68,6.05,0.82,12.02,0.83,18.06
		c0.01,7.31-1.67,14.52-1.09,21.86c0.22,2.73-1.19,3.9-3.92,3.84c-3.66-0.09-7.34-0.22-10.98,0.07c-2.49,0.2-5.33,0.97-4.93,4.35
		c0.4,3.38,2.8,3.11,5.62,2.77c3.56-0.42,7.23,0.01,10.85,0.17c2.79,0.12,2.23,2.33,2.38,4.08c0.65,7.21-1.18,14.21-2.29,21.19
		c-0.92,5.77-1.17,11.61-1.41,17.29c-1.05,25.51-4.58,50.93-3.28,76.53c0.19,3.68-0.92,5.16-4.84,5.74
		c-4.36,0.64-8.54,2.6-12.76,4.07c-1.85,0.64-3.46,1.94-2.93,4.02c0.49,1.94,2.36,2.85,4.36,2.54c3.59-0.56,7.22-1.1,10.71-2.1
		c4.58-1.32,5.58,0.71,5.47,4.75c-0.48,17.44-1.48,34.86-0.98,52.32c1.08,10.71,0.12,21.45,0.49,32.18
		c0.14,4.27-0.57,8.57,0.46,12.81c-0.95,2.66-1.04,5.32,0.06,7.96c1.34,4.27-0.42,8.76,0.94,13.02c-3.59,5.21-1.46,10.95-0.66,16.14
		c1.24,8.02,2.98,16.06,5.72,23.78c0.91,1.67,0.54,3.02-1.02,4.07l0.01-0.01c-2.37,0.89-4.65,2-7,2.96
		c-2.37,1.07-4.84,1.98-7.1,3.26c-2.53,1.43-4.55,3.25-0.9,5.79c3.16,1.21,6.1,0.39,8.97-0.99c2.47-0.17,4.31-2.46,6.95-2.06
		c1.67-0.92,3.04-0.66,4.05,1.02c2.16,11.07,6.05,21.64,9.78,32.21c7.27,20.6,15.24,40.94,24.19,60.89
		c1.63,3.63,3.39,7.2,5.09,10.79c-4.51,5.06-3.98,10.27-2.08,16.55c3.71,12.29,7.47,24.5,12.52,36.32c2.03,4.76,1.79,5.02-3.19,6.52
		c-1.67,0.5-3.28,1.16-4.06,2.68c-3.01,5.79-5.96,11.53-2.16,18.27c4.41,7.83,9.1,15.51,13.21,23.51c2.49,4.84,1.43,7.02-3.35,7.11
		c-9.49-5.66-13.88-15.46-18.95-24.42c-9.06-16.02-18.27-31.99-26.03-48.71c-5.08-10.95-10.43-21.82-12.99-33.75
		c-1.08-1.72,0.23-2.29,1.4-2.94c2.14-1.18,4.39-2.14,6.62-3.14l-0.01,0.01c1.5-1.16,3.53,0.26,5.01-1.02l-0.02,0.01
		c2.36-1,4.84-0.24,7.26-0.47c5.44-0.5,8.14-3.11,7.72-7.51c-0.32-0.32-0.64-0.65-0.97-0.97c-6.72-0.84-13.43-1.35-20,0.98
		c-2.57,1.14-5.41,1.91-7.65,3.5c-2.62,1.86-3.83,1.15-4.78-1.41c-7.53-20.32-16.17-40.26-21.71-61.27
		c-1.18-4.46-2.38-8.81-4.88-12.72c1.67-7.82-2.4-14.55-4.17-21.7c-0.88-3.54-2.13-7-3.43-10.42c-2.33-6.11-2.82-12.5-3.36-18.9
		c0-0.65-0.01-1.3-0.01-1.95c-0.86-1.55-0.68-3.07,0.9-3.83c3.45-1.67,3.02-4.3,2.21-7.19c-0.5-1.76-0.9-3.55-1.45-5.29
		c-0.94-2.94-0.76-5.38,1.97-7.53c2.98-2.35,3.53-5.42,2.8-9.35c-1.43-7.68-2.87-15.35-4.78-22.92c-0.8-3.16,0.17-4.74,3.73-4.39
		c4.3,0.42,8.48-0.55,12.65-1.5l-0.01,0.01c1.51-1.15,3.53,0.26,5.01-1.01l-0.01,0.01c2.36-1.44,4.47,0.59,6.71,0.49
		c1.77-0.08,3.64,0.65,5.3-0.55c1.12-5.21-1.11-8.23-6.98-8.84c-3.62-0.37-7.37-0.58-10.82,1.03c-4.16,1.95-8.74,1.8-13.1,2.76
		c-3.5,0.77-5-0.75-5.13-4.58c-1.02-30.92-1.62-61.86-0.67-92.77c0.49-15.96,0.4-31.9,0.67-47.84c0.06-3.97,1.8-5.11,5.28-4.29
		c6.43,1.52,12.93,0.39,19.4,0.68c2.27,0.1,3.88-1.18,4.23-3.44c0.37-2.34-1.11-3.72-3.17-4.45c-4.53-1.61-9.17-1.39-13.77-0.51
		c-9.24,1.76-10.47,0.8-9.85-8.53c1.14-17.03,2.54-34.03,3.15-51.1c0.44-12.19,2.42-24.34,3.98-36.48c0.27-2.13-0.09-3.77-0.74-5.69
		c-1.71-5.07-0.5-6.66,4.74-6.68c5.33-0.02,10.66-0.02,15.99,0.07c2.21,0.04,4.23-0.29,4.42-2.85c0.18-2.36-1.63-3.79-3.69-4.01
		c-5.07-0.56-10.1-2.12-15.29-0.59c-4.07,1.2-5.91-0.36-5.68-4.73c0.76-14.74,2.23-29.5,1.81-44.21
		c-0.5-17.77,2.63-35.28,2.28-52.99c-0.09-4.49-1.51-8.83-1.1-13.37c0.18-1.98,0.33-2.85,2.87-2.55c4.27,0.51,8.63,0.26,12.96,0.36
		c2.6,0.06,5.05-0.72,4.96-3.6c-0.09-2.83-2.59-3.44-5.16-3.47c-4.14-0.05-8.25,0.05-12.41-0.72c-3.06-0.57-2.99-2.12-3.27-4.42
		c-1.3-10.43-0.1-20.96-1.08-31.35C241.08,591.52,241.65,580.75,241.25,569.97z"/>
	<path class="st18" d="M289.41,797.77c3.25-0.45,3.95-3.27,5.1-5.6c6.81-13.8,16.02-25.6,28.78-34.39
		c4.95-3.41,8.38-2.54,11.79,2.37c1.09,1.57,1.01,2.33-0.99,2.61c-1.68,0.24-2.93,1.13-2.54,2.98c0.45,2.13,2.3,2.14,4,2.04
		c4.36-0.27,8.14-2.66,12.47-3.31c4.35-0.65,8.46-0.51,12.8,0.11c23.92,3.41,40.38,17.88,54.42,36.06c1.02,1.32,1.72,3.07,3.67,2.93
		c2.19-0.15,2.25-2.01,2.53-3.7c0.31-1.89,1.85-2.57,3.45-3.21c4.04-1.61,8.23-1.31,12.31-0.69c4.47,0.68,4.7,4.24,3.88,7.7
		c-0.65,2.76-2.08,5.4-4.45,7.07c-7.21,5.08-9.62,12.68-10.1,20.72c-0.46,7.71-2.66,15.43-0.47,23.26c0.45,1.63-0.22,3.6-0.49,5.39
		c-0.2,1.32-0.74,3.51,0.09,3.77c4.92,1.54,2.93,6.17,4.53,9.12c1.73,3.2-2.36,6.37,0.23,9.75c0.44,0.58-2.6,2.63-4.32,3.64
		c-4.91,2.87-8.7,7.04-12.8,10.85c-1.8,1.68-1.4,4.11-1.63,6.1c-1.01,8.76-4.07,16.72-8.42,24.28c-0.94,0.22-1.43-0.02-1.1-1.08
		c1.32-8.36,2.14-16.73,2.25-25.23c0.33-24.73-18.28-47.08-41.34-53.11c-14.64-3.83-26.78,2.1-37.66,10.94
		c-13.86,11.26-22.12,26.69-25.21,43.64c-2.61,14.29-3.1,29.5,3.32,43.56c1.71,3.74-1.52,4.65-3.06,6.41
		c-1.65,1.89-2.97,0.41-3.75-1.23c-1.36-2.84-4.55-0.53-6.09-2.12c-3.81-3.93-8.84-7.19-8.56-13.69
		C281.53,889.57,286.53,843.73,289.41,797.77z"/>
	<path class="st19" d="M333.22,1351.31c4.43-0.85,4.2-3.24,2.34-6.48c-4.6-8.01-9.19-16.03-13.54-24.17
		c-3.22-6.01-1.23-16.38,3.7-20.75c0.72-0.64,1.75-1.44,2.58-1.37c6.03,0.48,4.48-2.7,2.93-5.86c-6.36-13.02-9.34-27.2-13.94-40.82
		c-1.62-4.81-0.23-7.83,5.04-11.5c4.66,6.75,7.03,14.62,10.79,21.82c4.39,8.4,8.99,16.61,15.2,23.86c3.96,4.63,3.33,7.45-1.74,10.71
		c-3.76,2.42-7.35,5.11-11.13,7.49c-1.84,1.16-2.83,2.59-1.8,4.49c1.01,1.86,2.78,2.82,5.04,1.87c3.55-1.49,6.66-3.7,9.87-5.78
		c5.82-3.77,7.71-3.49,11.82,2.13c6.16,8.43,12.07,17.18,19.7,24.28c9.74,9.06,18.79,18.81,28.66,27.71
		c6.39,5.77,12.57,11.72,18.67,17.8c11.21,11.16,23.86,20.48,37.83,28.03c8,4.32,15.74,9.14,23.56,13.8
		c5.02,2.99,4.98,3.13,0.48,7.12c-0.89,0.79-1.75,1.53-3,1.61c1.73-2.1,1.52-3.3-1.16-4.75c-8.71-4.72-17.98-8.36-25.87-14.68
		c-8.88-7.11-19.24-12.26-27.01-20.91c-2.7-3-6.75-4.7-9.1-8.26c-0.82-1.23-2.08-1.63-3.38-0.37c-1.68,1.63-2.05,3.4-0.53,5.3
		c2.14,2.68,4.34,5.3,7.11,8.67c-10.29-0.44-17.79-5.88-26.07-9.06c0.96-4.6-0.22-5.84-4.61-4.63c-5.09,1.41-9.22,4.54-13.08,7.96
		c-2.86,2.54-5.48,5.35-8.16,8.09c-1.49,1.52-2.97,2.15-4.7,0.42C356.21,1381.59,341.69,1368.97,333.22,1351.31z"/>
	<path class="st19" d="M273.25,1061.51c-1.49-1.32-0.94-3.09-0.94-4.68c-0.03-13.44-0.01-26.87-0.01-40.31
		c1.42,1.34,0.93,3.1,0.93,4.7C273.27,1034.65,273.25,1048.08,273.25,1061.51z"/>
	<path class="st19" d="M274.25,1082.49c-2.11-4.21-0.44-8.69-0.94-13.02C275.36,1073.68,273.81,1078.16,274.25,1082.49z"/>
	<path class="st19" d="M272.27,1137.49c-2.75,2.51-5.76,2.68-8.97,0.99C266.38,1139.01,269.27,1137.71,272.27,1137.49z"/>
	<path class="st19" d="M271.3,1129.43c2-1.78,4.24-2.99,7-2.96C276.29,1128.23,274.06,1129.45,271.3,1129.43z"/>
	<path class="st19" d="M283.28,1136.46c-1.26-0.7-2.59-1.13-4.05-1.02C281.06,1133.84,282.77,1132.78,283.28,1136.46z"/>
	<path class="st19" d="M278.29,1126.48c0.69-1.27,1.14-2.6,1.02-4.07C280.58,1124.17,281.21,1125.77,278.29,1126.48z"/>
	<path class="st20" d="M748.22,1239.37c1.46,7.57,2.84,15.15,4.39,22.7c2.39,11.61,7.25,22.37,11.53,33.33
		c1.59,4.07,3.41,8.29,2.07,12.91c-5.83,7.32-4.74,16.02-4.21,24.3c0.47,7.41,1.46,14.93,4.5,21.93c0.53,1.21,0.6,2.57,0.71,3.91
		c0.63,8.14-2,15.84-4.17,23.36c-1.88,6.53-7.6,10.46-14.83,10.8c-5.76,0.27-9.84,3.24-13.55,7.22c1.29,1.33,2.7,1.03,3.96,1.01
		c5.99-0.1,11.17,1.89,15.35,6.11c2.25,2.27,3.51,1.79,4.78-0.83c2.19-4.53,4.02-9.21,4.71-14.17c2.53-18.1,4.83-36.22,4.41-54.58
		c-0.14-6.18-1.11-12.26-1.48-18.4c-0.12-1.96-0.87-3.97,0.82-5.66c3.29,3.78,2.11,8.65,2.56,12.9c1.06,10.13,1.34,20.34-0.1,30.59
		c-1.17,8.32-1.52,16.78-2.19,25.17c-1,12.38-5.47,23.39-10.29,34.53c-4.57,10.56-10.32,20.42-16.29,30.2
		c-1.26,2.07-2.48,4.6-5.81,3.03c-0.51-0.24-1.49-0.25-1.87,0.08c-2.88,2.52-5.45,1.57-8.94,0.8c-4.28-0.95-4.51-1.22-3.39-5.47
		c4.37-16.53,4.01-33.41,2.51-50.34c-0.9-10.17-3.55-19.84-6.67-29.45c-0.59-1.81-1.57-3.23,1.17-4.73c2.46-1.35,1.77-4.1-0.93-4.79
		c-4.31-1.1-6.73-3.97-8.76-7.51c0.92-0.9,2.02-0.65,2.65,0.1c2.56,3.05,5.94,4.67,9.56,6.03c1.91,0.72,3.3,2.68,1.87,4.36
		c-4.34,5.09-1.83,9.97-0.16,14.96c0.35,1.05,0.2,2.3,1.17,3.19c1.41-1.95,1.92-4.26,2.9-6.36c2.28-4.83,6.16-7.68,11.06-9.44
		c7.03-2.53,8.71-6.76,5.62-13.84c0.03-3.68,2.91-6.21,3.87-9.52c4.21-4.24,6.15-9.38,6.04-15.32c-0.02-1.13-0.03-2.69-1.49-2.76
		c-1.48-0.08-1.48,1.51-1.76,2.6c-2.02,7.85-2.02,7.86-9.64,6.89c-6.17-0.79-6.7-1.39-7.04-7.88c-0.07-1.46,0.23-3.03-1.16-4.43
		c-2.32,0.92-1.95,3.07-2.15,4.91c-0.44,4.12,0.67,8.26-0.09,12.38c-3.56,0.64-3.67-2.37-4.04-4.35c-0.87-4.65,0.19-9.29,1.33-13.77
		c0.74-2.92,3.17-4.29,6.23-3.6c3.03,0.68,4.32,2.86,4.27,5.9c-0.03,1.5-0.62,2.94-0.44,4.46c0.15,1.36,1,2.09,2.3,2.2
		c1.63,0.13,1.93-0.99,1.89-2.27c-0.15-3.83-0.14-7.64,0.44-11.45c0.35-2.27-1.08-2.66-2.77-1.72c-4.07,2.26-8.15,2.32-12.53,0.94
		c-3.17-1-5.29,0.7-6.93,3.45c-5.06,8.48-9.61,10.14-18.7,6.64c-12.35-4.76-21.77-13.19-29.31-23.58c0.75,6.7-0.44,13.52-2.21,20.2
		c-0.91,3.45-0.66,5.75,2.89,7.23c1.69,0.71,3.28,2.04,3.88,3.75c1.57,4.48,5.06,5.58,9.22,6.32c7.3,1.31,14.05,4.14,19.92,8.77
		c1.62,1.28,3.83,2.3,3.3,5.04c-6.5-3.17-11.78-8.4-19.12-10.26c-22.21-5.62-42.95-2.08-62.64,9.12c-1.93,1.1-3.5,2.61-4.73,4.37
		c-1.39,1.99-3.16,2.83-5.49,2.77c1.04-2.47,0.91-4.01-1.86-5.79c-6.04-3.88-11.01-9.07-15-15.13c-2.27-3.44-3.5-7.13-3.43-11.28
		c0.05-2.96-1.26-4.97-4.15-6.13c-2.99-1.21-4.54,0.37-6.39,2.29c-6.35,6.57-14.79,5.66-19.9-1.96c-1.11-1.65-1.66-3.62-3.78-6.06
		c0.17,7.71-5.69,13.05-4.49,20.32c0.13,0.8-0.17,1.7-0.61,2.39c-1.6,2.51-1.54,4.55,1.17,6.33c0.97,0.64,1.42,1.87,0.45,3.06
		c-1.25-0.81-2.44-1.74-3.77-2.39c-2.97-1.46-3.46-3.43-1.35-5.92c2.9-3.43,2.56-6.26-2.35-8.67c9.07-3.62,7.71-11.79,9.37-18.32
		c4.9-19.19,11.35-37.77,20.11-55.53c0.41-0.83,1.32-1.42,1.99-2.12c0.77,3.62-0.16,7.16-0.59,10.7c-0.5,4.14,0.28,7.55,3.95,9.99
		c3.31,2.2,5.26,5.54,6.85,9.03c3.64,7.96,9.64,12.74,18.25,14.44c2.52,0.5,4.55-0.11,6.59-1.38c3.87-2.4,8.08-3.51,12.6-4.28
		c5.86-1,11-3.63,12.62-10.31c0.68-2.81,2.26-5.23,4.83-6.72c2.91-1.69,3.45-3.98,2.85-7.16c-0.7-3.68-1.87-7.43,0.05-11.22
		c1.03-2.02-0.83-3.09-2.23-3.84c-5.74-3.09-9.49-8.65-15.28-11.79c-4.32-2.34-6.31-7.12-8.51-11.42
		c6.88-4.82,15.02-5.58,22.93-6.94c8.84-1.52,17.82-1.31,26.73-0.99c14.77,0.52,29.35,2.12,42.08,10.78
		c1.91,1.3,4.07,1.22,6.24,1.11c2.2,5.75,7.05,9.52,10.71,14.17c3.62,4.6,5.47,9.77,6.56,15.41c1.19,6.18,2.75,12.2-0.01,18.49
		c-2.16,4.93-5.18,7.85-10.54,9.52c-7.1,2.21-13.89,5.29-21.35,6.52c-8.2,1.35-15.11-0.43-20.8-6.58c-0.74-0.8-1.37-2.42-2.67-1.59
		c-1.47,0.93-0.45,2.36,0.12,3.53c2.52,5.1,9.62,8.38,15.62,7.33c6.69-1.17,13.36-2.51,20.11-3.33c1.99-0.24,4.07-0.5,5.77-1.48
		c5.98-3.46,12.07-5.82,19.26-5.67c4.15,0.09,8.79-8.81,7.64-13.34c-2.37-9.34-4.98-18.63-6.1-28.23
		C746.32,1242.33,745.23,1240.07,748.22,1239.37z"/>
	<path class="st21" d="M718.18,1412.61c0.11,9.81-0.52,19.51-2.79,29.14c-1.19,5.04-4.32,7.12-8.72,7.3
		c-20.06,0.83-39.96,3.48-59.93,5.2c-6.77,0.58-13.52,1.27-20.28,1.93c-3.91,0.38-6.01-1.25-7.2-5.13
		c-5.36-17.53-7.13-35.28-5.24-53.57c1.24-11.95,3.71-23.53,6.93-35.05c0.69-2.47,1.81-3.52,4.17-4.16
		c14.11-3.77,28.28-4.81,42.9-3.28c10.87,1.14,21.77,1.97,32.64,3.26c4.95,0.59,7.86,2.55,9.69,7.53
		C715.92,1380.95,718.53,1396.51,718.18,1412.61z"/>
	<path class="st22" d="M558.23,1342.32c-3.47-3.5-6.01-7.15-2.02-11.91c-2.28-8.48,5.81-14.35,4.68-22.54c0.5-0.02,1-0.04,1.5-0.07
		c1.26,2.44,2.42,4.95,3.8,7.32c4.55,7.83,13.3,8.71,18.89,1.67c1.89-2.38,3.26-3.56,6.41-2.38c3.23,1.21,5.8,2.59,5.73,6.45
		c-0.25,13.4,9.43,20.2,18.53,27.01c4.8,3.59,5.27,2.96,0.49,6.42c-2.74,2.71-6.76,2.54-9.91,4.39c-2.03,1.19-3.95,2.37-2.69,4.97
		c1.16,2.38,3.22,1.62,5.2,0.86c1.46-0.56,2.95-2.5,4.47-1.24c1.73,1.43,0.08,3.51-0.35,5.07c-4.81,17.41-6.61,35.15-5.62,53.12
		c0.45,8.22,1.8,16.41,3.95,24.42c0.32,1.19,1.56,2.51,0.33,3.71c-1.25,1.21-2.5,0-3.63-0.52c-1.58-0.74-3.14-1.24-4.76-0.31
		c-1.86,1.07-3.43,1.39-5.44-0.06c-1.76-1.27-3.45,0.47-5,1.29c-2.19,1.15-4.68,0.7-5.05-1.25c-1.01-5.35-5.52-8.36-7.65-12.87
		c-5.45-11.57-9.93-23.51-13.41-35.82C561.33,1381.17,558.37,1361.95,558.23,1342.32z"/>
	<path class="st22" d="M624.22,1225.39c1.75,0.07,2.68,1.01,3.07,2.7c0.58,2.56,2.16,4.62,4.22,5.99
		c6.94,4.62,12.53,10.98,19.79,15.13c1.19,0.68,2.28,1.15,1.04,2.43c-3.91,4.05-1.63,8.72-0.7,12.75c0.89,3.85-0.25,5.68-3.19,7.15
		c-2.98,1.48-4.26,4.14-5.07,7.03c-1.4,5.04-7.81,10.66-13.15,10.7c-4.71,0.04-8.8,1.52-12.53,4.14c-2.86,2.01-5.49,1.6-8.84,0.97
		c-9.81-1.85-14.66-8.49-18.54-16.67c-1.33-2.8-3.13-5.33-6.05-7.05c-3.01-1.78-4.66-4.61-4.05-8.39c0.69-4.3,0.15-8.79,2.01-12.9
		c3.93-9.93,9.03-19.25,15.44-27.75c4.21-5.59,11.13-6.7,15.9-3.32c1.33,0.94,2.88,1.74,2.66,3.84c-0.5,4.76,2.01,4.9,5.52,3.58
		C622.51,1225.42,623.4,1225.48,624.22,1225.39z"/>
	<path class="st22" d="M748.22,1239.37c-2.05,3.55-0.12,7.12,0.47,10.44c1.46,8.11,3.73,16.09,5.89,24.06
		c0.5,1.83,0.45,3.1-0.85,4.5c-1.12,1.2-2.33,2.52-2.87,4.02c-1.59,4.39-4.68,5.54-8.97,4.97c-4.31-0.57-8.19,0.56-11.64,3.3
		c-2.67,2.12-5.99,3-9.23,3.47c-7.5,1.08-14.97,2.18-22.38,3.84c-5.89,1.32-15.47-5.19-17.09-10.97c-0.58-2.06,0.44-3.22,1.89-4.13
		c1.88-1.17,2.54,0.38,3.4,1.67c4.21,6.31,11.99,9.4,19.37,7.79c6.91-1.51,14.05-2.24,20.11-6.47c1.8-1.26,4.2-0.1,6.23-1.33
		c3.99-2.43,9.41-13.66,7.3-17.86c-1.77-3.53-1.32-7.08-2.18-10.55c-1.92-7.77-6.64-13.64-12.23-18.92
		c-2.35-2.22-3.77-4.56-3.25-7.84c1.87-3.69-0.59-5.41-3.38-6.85c7.15-9.05,17.61-8.56,24.48-2.57c3.45,3.01,4.35,6.96,4.82,11.09
		C748.43,1233.77,748.2,1236.58,748.22,1239.37z"/>
	<path class="st22" d="M767.21,1313.3c0.91,10.37,2.63,20.71,1.98,31.17c-0.84,13.34-1.42,26.66-3.52,39.95
		c-1.37,8.63-2.79,16.9-6.84,24.67c-1.28,2.46-2.26,3.68-4.36,0.68c-3.71-5.29-8.97-7.6-15.36-7.53c-1,0.01-2,0.03-3-0.01
		c-1.62-0.06-3.74,0.47-4.36-1.48c-0.72-2.24,1.88-2.24,2.96-3.31c4.6-4.52,10.05-6.08,16.49-6.58c6.27-0.49,11.86-8.31,12-14.69
		c0.02-1-0.36-2.23,0.09-2.96c6.74-10.89,0.45-21.22-1.63-31.56c-1.94-9.63-1.04-19.08-0.37-28.62c0.2-2.86,2.07-4.41,4.92-4.72
		c0,0,0,0,0,0c0.83,1.21,0.28,2.77,1,4.01C767.21,1312.65,767.21,1312.97,767.21,1313.3z"/>
	<path class="st23" d="M636.36,1349.09c20.53-9.52,50.04-11.29,64.16,2.46C678.7,1350.11,657.68,1346.06,636.36,1349.09z"/>
	<path class="st24" d="M549.21,1344.38c-8.46,3.47-17.21,5.39-26.4,4.83c-2.12-0.13-2.57-1.61-1.39-3.1
		c5.12-6.43,10.37-12.77,17.77-16.81c0.51,3.59,4.46,3.09,5.88,4.83c1.38,1.7-0.91,5.39,1.07,7.84
		C546.94,1342.95,548.18,1343.59,549.21,1344.38z"/>
	<path class="st25" d="M594.34,1456.38c6.21,1.85,12.08-0.38,18-1.62c1.51-0.32,1.66,0.41,2.01,1.34c0.63,1.7,1.27,3.4,1.9,5.1
		c0.83,5.47-2.26,9.37-5.41,13.17c-1.39,1.68-3.41,1.47-4.93,0.21c-4.46-3.68-8.95-7.39-11.65-12.69
		C593.34,1460.1,592.64,1458.2,594.34,1456.38z"/>
	<path class="st26" d="M673.21,1459.19c-1.99,7.64-3.97,15.29-6,22.93c-0.51,1.92-1.13,3.82-1.83,5.67c-0.57,1.5-1.59,2.71-3.41,2.1
		c-1.74-0.59-2.04-2.21-1.69-3.73c1.89-8.35,3.89-16.68,5.86-25.02c0.77-0.82-0.07-2.24,1.08-2.92c1.62-0.57,2.78-3.38,4.99-1.02
		C672.77,1457.75,673.84,1458.05,673.21,1459.19z"/>
	<path class="st27" d="M739.3,1458.21c-0.7,5.1-3.52,9.29-6.23,13.4c-2.49,3.78-6.9,3.79-9.65,0.16c-3.08-4.05-6.43-8.08-7.08-13.46
		c1,0.02,2,0.04,3,0.06c3.11,1.73,3.87,5.29,6.02,7.78c2.2,2.56,3.92,2.44,5.13-0.59c1.08-2.72,2.86-5.25,2.8-8.36
		C735.54,1456.04,737.05,1459.3,739.3,1458.21z"/>
	<path class="st28" d="M594.34,1456.38c-0.42,5.29,3.04,8.5,6.34,11.79c8.98,8.94,9.19,8.89,14.03-2.8
		c0.57-1.37,1.04-2.78,1.55-4.17c1.23,1.62,2.86,2.31,4.88,2.06c-0.25,0.31-0.51,0.62-0.76,0.93c-0.92,1.22-2.72,1.97-2.16,4
		c-1.59,2.08-3.23,4.12-4.75,6.24c-2.49,3.49-5.63,5.02-9.01,1.72c-5.55-5.43-12.04-10.34-13.15-18.9
		C592.31,1456.96,593.32,1456.67,594.34,1456.38z"/>
	<path class="st29" d="M733.29,1457.2c0.9,3.1-1.64,10.8-3.99,12.32c-1.42,0.92-2.33,0.52-3.34-0.73c-2.6-3.24-5.06-6.54-6.62-10.42
		c1.92-1.16,3.82-2,5.95-0.38C728.17,1460.18,730.83,1459.53,733.29,1457.2z"/>
	<path class="st30" d="M667.22,1458.22c-0.08,1.08,0.19,2.28-1.08,2.92c-2.03-1.77-4.56-1.24-6.62-0.7
		c-4.45,1.19-8.89,0.49-13.32,0.75c3.53-2.08,7.59-0.89,11.39-1.76C660.65,1458.73,664,1458.57,667.22,1458.22z"/>
	<path class="st31" d="M673.21,1459.19c-0.33-0.66-0.66-1.32-0.99-1.99c7.33-0.33,14.66-0.66,21.99-0.99
		c-3.39,1.86-7.25,1.26-10.86,1.8C680.02,1458.51,676.58,1458.67,673.21,1459.19z"/>
	<path class="st30" d="M646.23,1461.18c-2.65,1.57-5.3,1.51-7.97,0.06C640.91,1461.22,643.57,1461.2,646.23,1461.18z"/>
	<path class="st20" d="M767.21,1312.32c-1.47-1.05-0.87-2.62-1-4.01C767.26,1309.47,768.03,1310.7,767.21,1312.32z"/>
	<path class="st32" d="M934.03,271.26c0.24,4.87,3.95,7.92,6.33,11.6c2.66,4.12,4.53,8.21,5.04,13.24
		c0.69,6.81,3.66,13.04,6.89,19.06c0.19,2.17-1.52,2.75-2.97,3.49c-1.48,0.76-3.03,1.4-4.39,2.36c-1.99,1.4-3.97,3.05-2.48,5.72
		c1.38,2.48,3.73,1.63,5.76,0.76c2.6-1.12,5.25-2.16,7.77-3.41c15.83-7.86,33.17-9.55,50.24-12.27c13.79-2.2,27.52,0.47,41.28,0.68
		c20.87,0.32,39.94,6.47,58.05,16.3c1.02,0.55,2.1,1.03,3.25,1.25c1.78,0.34,3.43,0.05,4.27-1.71c0.82-1.72,0.19-3.29-1.23-4.45
		c-3-2.46-6.7-3.66-10.05-5.49c-1.9-1.04-4.66-1.33-4.78-4.37c5.2-8.99,6.74-18.84,7.34-29.05c0.66-11.27-0.11-22.5-0.35-33.74
		c-0.51-3.31,1.61-4.43,4.27-4.87c23.61-3.93,46.8-2.35,68.56,7.93c15.53,7.34,25.12,20.55,31.49,36.43
		c2.44,6.08,2.33,12.22,2.57,18.3c0.34,8.73,3.15,16.68,6.63,24.28c3.57,7.78,4.53,15.97,5.41,24.1
		c2.04,18.91-2.73,36.26-12.11,52.93c-11.57,20.58-27.85,35.81-48.53,46.48c-17.58,9.07-35.63,17.7-55.74,18.61
		c-8.96,0.4-12.9,7.41-19.5,10.72c-15.91,7.98-31.29,16.86-49.28,19.47c-19.65,2.85-38.43,0.28-56.96-7.11
		c-17.17-6.84-29.69-19.07-41.79-32.14c-1.95-2.11-3.81-3.33-6.16-0.58c-0.81,0.95-1.93,1.21-3.15,1.22
		c-13.68,0.15-27.27-0.2-39.5-7.59c-1.84-1.2-3.63-2.54-6-2.45c-10.9-7.31-20.9-15.63-29.29-25.81
		c-9.65-11.71-16.41-24.72-19.16-39.79c-2.31-12.67-2.08-24.74,3.47-36.87c3.86-8.43,6.66-17.29,12.99-24.37
		c0.49-0.61,0.72-1.35,0.97-2.08c2.45-10.59,6.22-20.95,6.52-31.92c0.29-10.96,5.53-19.79,12.13-27.66
		c6.37-7.6,13.76-14.41,23.29-18.25c2.17-0.88,3.97-2.39,5.7-3.96c1.9-1.72,4.12-3.03,6.68-2.97c3.25,0.08,6-0.25,8.62-2.69
		c2.37-2.2,3.91-0.4,4.24,2.27c0.51,4.11-0.41,8.3,0.74,12.37c0.35,4.74,1.22,9.43,1.4,14.18c0.1,2.49,0.4,4.73,3.33,5.18
		c2.8,0.43,5.63,0.55,6.84-2.92C933.03,271.27,933.49,271.13,934.03,271.26z"/>
	<path class="st33" d="M920,255.19c-1.79-3.64-0.37-7.53-0.84-11.27c-0.14-1.08,0.55-2.56-0.84-3.11c-1.37-0.55-2.18,0.74-2.68,1.69
		c-1.33,2.53-3.05,3.05-5.76,2.16c-3.13-1.04-5.88,0.25-8.11,2.49c-1.67,1.67-3.4,3.19-5.62,4.06
		c-10.06,3.95-17.91,11.1-24.33,19.24c-5.71,7.24-10.54,15.34-10.89,25.49c-0.22,6.27-0.03,12.94-3.39,18.91
		c-1.07,1.91-1.33,4.5-1.27,6.76c0.07,3.09-0.94,5.47-3.08,7.53c-1.33-3.28-0.21-6.55,0.22-9.75c1.16-8.69,2.39-17.32,2.73-26.13
		c0.27-7,3.99-13.28,7.85-19.1c4.49-6.76,9.48-13.17,15.15-19.01c1.13-2.2,4.19-2.44,5.03-4.94c9.35-7.92,20.66-11.93,31.94-16.01
		c0.74-1.05,1.86-0.91,2.92-0.95c0.65,0.21,1.43,0.53,1.56,1.14C922.11,241.35,922.88,248.33,920,255.19z"/>
	<path class="st34" d="M879.15,255.14c-1.76,6.11-6.97,9.88-10.54,14.69c-4.82,6.5-8.35,13.46-10.97,20.89
		c-1.61,4.57-0.28,9.67-0.78,14.58c-0.82,8.04-3.58,15.73-3.67,23.84c-0.33,0.33-0.66,0.67-1,1c-0.21-5.45-0.75-10.97-0.74-16.33
		c0.06-15.84,2.09-31.26,13.34-44.06c3.79-4.31,6.96-9.19,11.32-13.04C877.02,255.92,877.9,255.18,879.15,255.14z"/>
	<path class="st35" d="M348.99,954.58c-12.83,0.59-23.7-3.68-34.97-5.37c-4.67-0.7-6.23-5.64-7.02-9.48
		c-2.2-10.76-3.8-21.61-1.69-32.73c3.19-16.81,9.92-31.77,23.18-42.84c9.55-7.97,20.32-14.47,33.66-10.26
		c17.97,5.67,29.89,17.34,35.07,35.89c3.16,11.33,1.43,22.23-0.62,33.32c-3.31,17.99-15.84,25.78-32.17,29.43
		C358.97,953.77,353.56,955.75,348.99,954.58z"/>
	<path class="st12" d="M436.41,861.82c8.89-0.49,11.16,2.73,7.28,10.82c-1.67,3.47-3.64,6.94-7.22,8.98
		c0.34-5.34-1.69-10.75,0.39-16.03C437.4,864.2,436.86,863.04,436.41,861.82z"/>
	<path class="st36" d="M383.05,952.64c-1.52,7.85-1.52,7.98-9.08,7.84c-1.87-0.03-3.5-0.29-5.07,0.99c-1.72,1.4-2.22-0.26-2.86-1.36
		c-0.72-1.23-0.66-2.03,0.99-2.51C372.21,956.09,377.34,954.43,383.05,952.64z"/>
	<path class="st37" d="M296.15,958.78c-1.01,2.04-2.01,4.09-3.15,6.4c-3.47-2.46-3.2-6.39-4.63-9.46
		C291.81,954.58,293.42,958.09,296.15,958.78z"/>
	<path class="st38" d="M402.15,926.54c0.37,0.36,0.74,0.72,1.11,1.08c-0.74,1.45-1.49,2.9-2.66,5.17
		C400.25,929.81,401.15,928.16,402.15,926.54z"/>
	<path class="st39" d="M1074.16,217.18c5.35-0.25,2.27-3.02,1.38-4.93c-1.07-2.29-5.19-3.2-3.99-6.25c1.24-3.16,4.8-4.44,7.8-5.79
		c7.61-3.41,14.29,0.28,16.93,8.26c3.13,9.48,1.46,19.09,1.67,28.63c0.08,3.34,0.69,6.51,1.03,9.76c1.84,17.5,1.96,34.99-0.79,52.45
		c-0.75,4.73-3.11,8.7-5.09,12.87c-0.63,0.62-1.51,1.01-2.26,0.73c-7.23-2.72-15.01-3.68-22.12-6.77c-1.19-1.24-1.66-2.85-2.21-4.41
		c-5.93-16.58-17.96-26.7-34.25-32.33c-1.26-0.43-2.56-0.88-3.89-0.84c-14.28,0.45-27.68,2.77-37.53,14.87
		c-5,6.14-9.27,12.52-12.02,19.93c-0.58,1.55-1.24,3.09-2.36,4.37c-6.26,2.58-12.32,5.88-19.41,5.59
		c-4.87-4.56-6.97-10.6-7.71-16.86c-0.74-6.3-2.41-11.85-6.41-16.87c-4.5-5.65-4.46-9.82-0.21-15.45c1.73-2.29,2.84-4.34,1.65-7.26
		c-0.38-0.94-0.29-2.64,0.32-3.32c2.44-2.72,2.4-5.61,0.85-9.07c5.38,1.63,5.05-2.13,5.64-5.07c2.78-13.94,7.67-27.08,15.02-39.27
		c2.49-4.14,6.12-5.34,10.65-3.78c3.57,1.23,3.97,3.37,1.07,5.93c-1.05,0.93-2.34,1.8-1.33,3.22c1.04,1.46,2.51,0.35,3.6-0.2
		c5.77-2.94,11.76-5.37,17.7-7.93c10.61-4.57,21.43-4.94,32.69-3.22c11.7,1.78,22.54,5.47,32.43,11.97
		c0.85,0.56,1.69,1.06,2.05,2.07c-0.35,0.39-0.79,0.65-1.31,0.77c-3.31-0.19-6.63-0.28-9.93-0.53c-8.48-0.64-13.72,4.2-16.87,10.87
		c-3.16,6.71-3.85,13.76,1.19,20.71c6.15,8.47,14.25,11.09,23.96,9.67c7.48-1.09,11.29-6.37,13.05-13.35
		c0.66-1.57,0.7-3.24,0.69-4.91c0.11-1.89-0.07-3.7-1.35-5.23c-0.95-2.57-2.35-5.02-2.04-7.91
		C1072.77,217.53,1073.19,216.93,1074.16,217.18z"/>
	<path class="st2" d="M957.06,313.33c6.37-2.07,12.74-4.14,19.11-6.2c1.3-1.16,2.9-1.41,4.55-1.5c6.55-1.17,13.06-2.59,19.62-3.72
		c0.53-0.06,1.06-0.08,1.58-0.08c1.59-0.01,3.15-0.16,4.67-0.68c0.54-0.15,1.08-0.24,1.64-0.31c5.71-0.27,11.42-0.16,17.13-0.11
		c0.85,0.03,1.71,0.04,2.56,0.06c1.14,0.01,2.29,0.03,3.43,0.12c0.58,0.02,1.15,0.1,1.72,0.2c7.99,1.3,16.13-0.04,24.14,1.46
		c2.56,0.48,5.19,0.82,7.8,1.13c1.53,0.02,2.84,0.64,4.07,1.49c8.01,2.33,16.01,4.67,24.02,7c1.03,1.18,2.35,1.75,3.9,1.83
		c4.26,3.57,9.72,4.89,14.44,7.63c3.31,1.92,4.89,4.51,3.25,7.73c-1.74,3.41-4.96,3.15-8.19,1.46
		c-12.66-6.64-25.59-12.45-39.84-15.13c-7.7-1.45-15.49-1.9-23.17-2.23c-14.66-0.61-29.39-2.65-44.08,0.61
		c-12.73,2.82-25.94,3.62-38.03,9.12c-4.38,1.99-8.79,3.92-13.16,5.94c-2.81,1.3-5.71,1.9-7.44-1.23c-1.72-3.12-0.14-5.52,2.54-7.64
		c2.76-2.18,6.64-2.26,8.95-5.1C954.12,315.18,955.73,314.63,957.06,313.33z"/>
	<path class="st25" d="M942.02,246.28c0.23,0.44,0.78,1.09,0.65,1.29c-2.92,4.39-0.62,10.19-3.68,14.35
		c-1.69,2.29,0.75,6.61-3.79,7.26c-5.85-5.33-7.97-12.21-6.92-19.71C929.15,243.23,936.42,241.77,942.02,246.28z"/>
	<path class="st40" d="M942.02,246.28c-0.78-0.24-1.56-0.53-2.36-0.71c-8.48-1.87-12.28,2.11-9.99,10.48
		c1.26,4.62,3.16,8.97,5.53,13.13c-0.39,0.7-0.78,1.39-1.17,2.09c-0.25-0.02-0.49-0.05-0.74-0.07c-0.22-0.06-0.45-0.11-0.68-0.17
		c-1.8-1.29-2.32-3.41-3.43-5.16c-0.71-1.3-0.92-2.9-1.91-3.97c-2.88-3.11-3.08-6.71-2.33-10.56c0.09-1.46,0.38-2.88,0.96-4.23
		c0.18-0.45,0.4-0.88,0.64-1.3c1.26-2.26,3.39-3.37,5.65-4.31c0.7-0.25,1.43-0.38,2.18-0.42c1.01-0.04,1.99,0.09,2.97,0.31
		c1.59,0.61,3.55,0.34,4.73,1.94C942.05,244.31,942.03,245.29,942.02,246.28z"/>
	<path class="st41" d="M937.03,242.23c-0.99-0.02-1.97-0.04-2.96-0.06c-1.78-3.11-2.31-6.15,0.45-9.03c3.01-0.18,5.89,0.3,8.46,1.97
		c1.66,1.08,3.31,1.3,5.04,0.2c-0.3,3.03-1.32,5.49-4.8,5.97C941.22,242.04,939.27,243.05,937.03,242.23z"/>
	<path class="st42" d="M937.03,242.23c2.06-0.3,4-1.43,6.18-0.95c-0.38,0.68-0.76,1.37-1.15,2.05
		C940.39,242.95,938.46,243.75,937.03,242.23z"/>
	<path class="st43" d="M530.2,1331.25c-5.05,3.64-8.49,8.87-12.95,13.1c0.05-7.66-0.63-15.46-0.3-22.94
		c0.39-9.06-6.81-13.93-8.24-21.71c-0.83-4.51-2.07-10.37,0.71-14.22c0.72-0.99,1.54-1.25,2.54-0.91c1.6,0.55,1.1,1.64,0.66,2.82
		c-2.37,6.35-1.69,10.37,3.32,14.36c3.85,3.07,8,1.4,11.49-1.11c2.94-2.11,4.63-4.73,2.94-8.91c-0.95-2.36-4.29-6.6,2.37-7.33
		c1.91-0.21,2.54,0.09,3.38,1.56c4.73,8.17,4.15,16.41-2.51,23.31c-2.73,2.84-3.9,5.69-3.32,9.31
		C530.99,1322.82,528.65,1327.01,530.2,1331.25z"/>
	<path class="st43" d="M516.24,1350.21c3.24,3.93,7.76,3.01,12,3.16c0.28,6.35,0.53,12.7,0.85,19.05c0.08,1.52-0.13,2.73-1.93,2.77
		c-2.99,0.07-5.98,0.13-8.96,0c-2.38-0.1-1.51-1.79-1.53-3.27C516.57,1364.68,517.36,1357.42,516.24,1350.21z"/>
	<path class="st43" d="M481.3,811.67c-0.35,11.51-3.27,23.29-6.88,34.93c-0.44,1.42-0.84,2.86-1.15,4.31
		c-1.51,7.22-5.26,8.7-11.61,4.74c-2.06-1.28-1.32-2.76-0.77-4.29c1.74-4.82,2.53-9.97,5.21-14.46c0.74-1.24,1.76-2.93-0.39-3.71
		c-1.72-0.63-2.03,1.05-2.55,2.29c-1.99,4.73-4.46,9.28-5.46,14.36c-0.7,3.58-2.27,3.64-5.14,2.05c-9.73-5.4-9.91-6.65-4.02-16.18
		c6.12-9.9,12.94-19.22,20.91-27.7c0.46-0.48,0.89-1.01,1.43-1.39c2.78-1.97,5.46-6.18,8.6-4.85
		C482.25,802.95,481.12,807.67,481.3,811.67z"/>
	<path class="st44" d="M459.28,858.61c-2.12,0.79-4.24,1.59-6.42,2.41c-1.1-1.74-0.4-3.57-0.66-5.28
		C454.55,856.69,456.91,857.65,459.28,858.61z"/>
	<path class="st45" d="M449.16,887.34c-1.97,2.08-4.8,1.76-7.03,2.8c-1.27,0.59-2.08-0.49-1.58-1.51c1.42-2.88,1.55-7.26,4.55-8.15
		C446.63,880.03,447.47,884.88,449.16,887.34z"/>
	<path class="st46" d="M447.25,873.82c0.75-2.77,1.5-5.54,2.26-8.31c2.74,1.84,3.13,4.89,3.19,7.66c0.04,1.57-2.38,2.03-3.87,2.61
		C446.61,876.64,447.53,874.68,447.25,873.82z"/>
	<path class="st47" d="M438.96,893.76c1.01,1.34,1.96,2.13,2.29,3.13c0.57,1.74,3.25,3.05,1.88,5.01c-1.11,1.59-2.59-0.3-3.83-0.83
		c-2.78-1.2-2.69-3.24-1.47-5.53C438.06,895.12,438.35,894.73,438.96,893.76z"/>
	<path class="st48" d="M458.67,861.87c-0.36,2.98-1.41,5.21-3.12,7.52C452.45,865.23,453.69,863.04,458.67,861.87z"/>
	<path class="st49" d="M444.57,897.02c-0.63-1.05-1.82-2.15-1.82-3.24c0-1.63,1.98-1.47,3.09-1.72c1.36-0.31,1.54,0.99,1.1,1.95
		C446.45,895.11,446.38,896.63,444.57,897.02z"/>
	<path class="st50" d="M450.57,882.91c-1.03-1.46-2.6-2.71-0.99-4.29c0.54-0.53,1.61-1.1,2.13-0.39
		C453.01,880.06,450.92,881.31,450.57,882.91z"/>
	<path class="st51" d="M921.27,223.01c-0.19-1.34-0.32-2.48-0.53-3.61c-1.26-6.69,0.28-8.17,6.9-6.89
		c8.29,1.6,13.58,6.36,15.93,14.46c0.42,1.44,1.22,3.1,0.16,4.21c-0.94,0.99-2.42-0.18-3.64-0.5c-5.72-1.5-11.39-3.45-17.45-1.83
		c-1.77,0.48-2.5-0.36-2.16-2.12C920.73,225.44,921.03,224.16,921.27,223.01z"/>
	<path class="st52" d="M934.52,233.14c-0.15,3.01-0.3,6.02-0.45,9.03c-0.63,0.07-1.27,0.13-1.9,0.2c-3.21-0.73-4.84,0.55-4.89,3.84
		c-0.07,0.29-0.12,0.59-0.16,0.89c-0.71,1.34-2.83-0.34-3.22,1.44c-0.38,1.69,1.05,2.17,2.21,2.77c-2.66,6.05,3.64,9.65,4.06,14.86
		c-2.27,3.54-0.73,4.91,2.9,5.11c0,0,0.22-0.08,0.22-0.08c0.55,4.64-2.35,5.14-5.89,4.96c-3.35-0.18-6.28-0.53-6.38-5.07
		c-0.11-5.3-0.66-10.59-1.02-15.89c-0.31-7.32,1.36-14.73-0.96-21.96C924.19,230.16,929.35,230.64,934.52,233.14z"/>
	<path class="st53" d="M912.11,222.16c-0.23-3.04,0.63-5.88,1.66-8.64c0.29-0.79,1.36-1.73,2.14-1.8c1.33-0.13,1.09,1.28,1.3,2.19
		c0.93,4.2,1.56,8.4,0.33,12.64c-0.45,1.55-0.65,3.57-2.83,3.45c-1.93-0.11-1.8-2.16-2.18-3.45
		C912.13,225.16,912.23,223.63,912.11,222.16z"/>
	<path class="st19" d="M250.29,1042.52c-3.79,1.92-7.87,2.14-11.99,2c-2.5-0.08-4.1-0.05-3.16,3.48c2.23,8.39,4.26,16.86,5.81,25.39
		c0.63,3.48-1.22,6.99-4.37,8.7c-2.48,1.35-2.42,2.62-1.68,4.74c0.71,2.02,1.13,4.15,1.73,6.21c1.13,3.84,3.04,7.9-3.48,8.83
		c-1.02,0.15-0.8,1.67-0.88,2.65c-1.43-1.35-0.93-3.12-0.93-4.72c-0.04-17.14,0.06-34.29-0.1-51.43c-0.03-3.56,0.74-5.4,4.67-4.85
		C240.76,1044.19,245.46,1042.32,250.29,1042.52z"/>
	<path class="st19" d="M232.29,1106.48c1.46,11.08,6.12,21.25,8.94,31.95c1.05,3.97,2.84,7.66,3.63,11.76
		c0.57,2.95,0.1,5.13-1.61,7.31C234.09,1141.68,230.85,1124.58,232.29,1106.48z"/>
	<path class="st19" d="M303.24,1229.39c2.7,4.14-0.76,5.54-3.37,6.9c-3.64,1.89-7.72,0.92-11.62,1.07c1.97-1.77,4.39-0.61,6.57-1.02
		C298.9,1235.57,303.11,1234.93,303.24,1229.39z"/>
	<path class="st19" d="M282.28,1229.4c6.52-3.22,13.24-2.54,20-0.98C295.59,1228.24,288.9,1228.19,282.28,1229.4z"/>
	<path class="st19" d="M283.28,1238.36c-2.07,2.83-6.84,2.09-8.03,6.08c-1.27-1.19-1.19-2.34,0.35-3.11
		C278.06,1240.11,280.3,1238.26,283.28,1238.36z"/>
	<path class="st19" d="M267.28,1041.46c-3.99,2.85-8-0.26-12,0.06C259.26,1039.17,263.28,1042.74,267.28,1041.46z"/>
	<path class="st19" d="M255.28,1041.52c-1.39,1.71-3.32,0.78-5.01,1.01C251.7,1040.96,253.59,1041.72,255.28,1041.52z"/>
	<path class="st19" d="M288.28,1237.35c-1.39,1.72-3.32,0.78-5.01,1.02C284.69,1236.79,286.58,1237.55,288.28,1237.35z"/>
	<path class="st54" d="M423.25,396.2c-0.89,7.28,1.23,15.5,4.65,23.91c4.8,11.81,6.47,24.56,8.46,37.17
		c1.04,6.54,1.02,12.95-0.53,19.2c-6.09,24.62-21.5,40.56-45.86,47.66c-11.96,3.48-24.29,5.02-36.71,5.81
		c-2.84,0.18-5.38-0.32-8.04-1.85c-6.13-3.51-11.87-1.16-14,5.39c-0.78,2.39-2.6,3.39-4.56,4.26
		c-19.17,8.44-38.55,15.94-59.85,17.34c-14.13,0.93-28.38,2.46-42.21-0.38c-20.85-4.29-38.98-13.77-51.58-32.01
		c-4.16-6.02-8.71-11.64-10.98-18.77c-0.84-2.66-3.19-4.52-6.24-3.89c-6.23,1.29-11.39-1.05-16.22-4.43
		c-5.86-4.09-12.99-5.5-18.75-10.1c-11.89-9.5-18.65-21.04-18.6-36.53c0.04-16.42,1.54-32.48,9.3-47.32
		c5.26-10.05,12.87-17.59,23.8-21.47c5.41-1.92,6.62-6.67,2.48-10.92c-2.46-2.53-2.32-4.4-0.98-7.4c4.47-9.99,9.03-19.89,14.17-29.6
		c6.3-11.91,15.98-20.25,26.32-28.03c17.87-13.46,38.31-21.28,60.22-24.73c13.58-2.14,27.45-2.76,41.07,0.73
		c6.82,1.75,13.09,4.96,18.85,8.86c4.42,3,7.42,7.36,8.74,12.87c1.21,5.05,4.63,6.34,9.5,4.49c26.53-10.11,50.51-5.56,72.59,12.04
		c10.39,8.28,18.19,18.36,24.15,30.02C418.47,360.34,423.28,381.2,423.25,396.2z"/>
	<path class="st55" d="M257.23,569.03c-2.79,2.45-5.79,2.65-8.99,0.86C251.13,568.48,254.2,568.95,257.23,569.03z"/>
	<path class="st56" d="M618.21,1468.19c-1.51-2.53-0.1-3.49,2.16-4C620.35,1465.91,619,1466.9,618.21,1468.19z"/>
	<path class="st57" d="M355.56,812.82c-0.2,9.39-3.85,16.05-10.79,19.64c-7.41,3.84-14.74,1.99-21.86-2.88
		c-12.88-8.81-9.12-30.08,1.55-37.95c11.04-8.14,29.67,1.03,29.83,13.12C354.35,807.85,355.93,810.84,355.56,812.82z"/>
	<path class="st58" d="M421.02,826.16c-0.23,13.44-6.41,22.28-15.58,22.18c-7.67-0.08-19.86-7.82-19.34-17.16
		c0.81-14.53,6.74-21.52,19.31-21.3C416.82,810.09,421.22,814.67,421.02,826.16z"/>
	<path class="st58" d="M379.21,822.02c-0.16,1.28-0.71,2.32-1.69,2.46c-2.58,0.38-4.28,1.41-4.57,4.23
		c-0.04,0.38-0.96,0.91-1.51,0.96c-1.03,0.08-1.55-0.84-1.33-1.64c0.73-2.64-1.03-3.38-2.86-4.28c-1.26-0.62-2.17-1.84-1.67-3.26
		c1.07-3.02,3.61-3.74,6.45-3.26C375.13,817.76,378.32,818.39,379.21,822.02z"/>
	<path class="st59" d="M425.72,818.19c-0.49-3.82-1.11-7.63-1.42-11.46c-0.18-2.26,1.69-3.45,3.33-4.55
		c1.13-0.76,2.17-0.24,3.14,0.56c1.74,1.45,1.4,3.09,0.68,4.91C430.01,811.29,428.87,815.05,425.72,818.19z"/>
	<path class="st60" d="M317.17,772.44c-1.06-0.14-2.09-0.91-1.49-2.24c1.4-3.1,2.47-6.8,6.58-7.32c2.31-0.29,3.11,1.49,3.02,3.59
		C325.2,768.39,319.78,772.51,317.17,772.44z"/>
	<path class="st22" d="M743.28,1347.29c1.66,0.22,3.11,0.87,2.43,2.83c-0.73,2.13-0.23,4.29-0.59,6.39
		c-0.34,1.97-0.86,4.23-3.17,4.58c-9.36,1.4-14.53,7.14-17.1,15.81c-0.27,0.92-0.94,1.72-1.95,3.53
		c-1.84-5.81-3.57-10.79-4.95-15.87c-0.65-2.41,2.19-3.44,3.01-5.38c0.54-1.27,1.67-2.91-0.01-3.26c-5.24-1.08-8.7-4.8-12.77-7.64
		c0,0,0.01,0,0.01,0c-6.53-7.86-15.51-11.08-25.09-12.9c-3.7-0.7-6.92-1.09-7.87-5.71c-0.5-2.47-2.81-4.28-5.3-4.89
		c-3.98-0.97-3.74-3.03-2.75-6.28c2.41-7.92,3.86-16.02,2.48-24.59c5.63,5.46,9.89,11.97,16.15,16.71
		c6.2,4.69,12.78,8.31,20.18,10.43c3.7,1.06,9.05-1.93,11.23-5.85c4.02-7.24,4.01-7.21,11.66-5.16c3.64,0.98,6.88-0.19,9.94-2.09
		c1.06-0.65,2.01-2.1,3.46-0.81c1.13,1,1.17,2.51,0.77,3.73c-1.35,4.08-1.07,8.25-0.61,12.34c0.22,1.96,0.4,3.73-1.85,3.39
		c-1.98-0.3-5.67,1.01-5.35-3.26c0.13-1.8,0.7-3.56,0.91-5.36c0.23-2.07-0.79-3.64-2.66-4.33c-1.76-0.65-3.56-0.65-4.95,1.11
		c-2.78,3.51-2.38,16.07,0.69,19.52c1.07-0.83,1.85-0.34,2.54,0.55c0.94,3.53,1.09,7.2,1.66,10.8c0.92,5.84,2.56,6.55,7.24,2.98
		C741.47,1348.01,742.21,1347.33,743.28,1347.29z"/>
	<path class="st61" d="M710.28,1279.51c-1.35-0.01-2.7-0.02-4.04-0.04c-6.82,0.46-13.37-5.4-14.43-12.89
		c1.36-1.5,2.67-0.44,4.03,0.04c3.59,1.27,5.62,0.26,6.71-3.28c0.5-1.62,0.43-3.25,0.09-4.89c-1.01-4.95-2.2-5.63-7.04-4.05
		c-0.64,0.21-1.27,0.35-1.94,0.26c-1.08-0.52-1.34-1.49-1.4-2.57c3.96-10.88,14.54-12.38,21.74-10.26c1.63,0.48,3.02,1.36,4.1,2.67
		c3.27,3.98,5.97,8.35,8.35,12.88c1.91,3.62,0.87,7.43-0.18,11.12c-1.9,4.75-5.83,7.75-9.47,11.02c-0.46,0.18-0.94,0.27-1.43,0.31
		C713.67,1279.7,711.94,1280.14,710.28,1279.51z"/>
	<path class="st22" d="M667.87,1218.4c11.85-0.28,23.45,1.29,34.79,4.7c1.68,0.5,4.1,0.52,4.28,2.74c0.16,2-2.17,2.29-3.59,2.92
		c-8.66,3.87-14.67,10.63-19.85,18.21c-2.56,3.74-2.41,8.17-2.32,12.53c0.03,1.33,0.71,3.36-1.54,3.57
		c-1.94,0.18-2.3-1.59-2.64-3.05c-1.07-4.73-1.77-9.07,2.17-13.38c5.31-5.81,3.52-12.06-3.76-15.02c-1.8-0.73-3.16-1.58-4.19-3.22
		c-4.27-6.83-10.95-8.29-17.7-3.5c-3.09,2.19-5.42,2.86-7.86-0.56c-0.77-1.08-2.11-2.12-1.57-3.43c0.51-1.25,2.09-1.56,3.45-1.49
		c3.51,0.18,6.92-0.52,10.37-0.93C661.18,1218.1,664.54,1218.41,667.87,1218.4z"/>
	<path class="st22" d="M658.89,1324.77c-1.58,2.3-3.76,3.49-6.05,4.4c-1.36,0.54-2.94,0.49-4.34,0.96c-6.11,2.02-5.88,2-7.36-4.78
		c-1.54-7.06-2.58-14.44-8.23-19.83c-2.28-2.17-0.53-3.4,1.22-3.96c5.22-1.66,9.82-4,12.62-8.99c0.42-0.75,1.23-1.2,2.12-0.98
		c1.56,0.37,1.3,1.72,1.33,2.84c0.14,5.13,0.12,10.23,0.82,15.38c0.69,5.03,1.92,9.36,5.85,12.71
		C657.62,1323.13,658.18,1323.96,658.89,1324.77z"/>
	<path class="st1" d="M731.22,1335.36c-0.41-0.82-1.15-1.03-1.98-1.07c-1.75-4.84-0.98-9.87-0.94-14.82
		c0.02-2.13,0.66-4.79,3.28-4.87c3.24-0.09,2.58,2.82,2.63,4.87c0.19,8.14,0.36,7.08,8.3,8.53c6.92,1.27,5.03-3.12,5.6-6.04
		c0.43-2.16,0.05-4.65,3.21-4.54c3.16,0.11,2.97,2.64,2.86,4.8c-0.33,6.2-0.88,12.35-6.95,16.09c-1.08,0.97-2.19,0.5-3.29,0.07
		c-3.27-1.22-6.58-2.29-10.16-2.03C732.79,1336.37,731.95,1335.99,731.22,1335.36z"/>
	<path class="st62" d="M725.15,1269.24c3.43-10.2-3.06-17.11-8.31-24.29c-3.08-4.21-13.82-3.52-19.16,0.99
		c-2.02,1.7-3.91,3.62-4.49,6.39c-0.92,3.56-0.16,7.29-1.11,10.86c-0.38,0.76-0.84,1.38-1.83,1.16c-1.95-6.72-0.99-12.79,4-17.96
		c1.1-1.09,1.22-2.7,2.05-3.93c1.64-1.03,3.28-2.07,4.92-3.1c5.39-3.33,13.2-2.51,17.79,2.14c1.48,1.5,3.23,2.88,4.12,4.92
		c1.13,2.7,3.23,4.71,4.98,6.97c0.73,1.21,1.27,2.48,1.21,3.94c-0.01,2.67-0.02,5.33-0.03,8c1.22,3.26-0.6,4.98-3.2,6.3
		C724.69,1271.25,724.48,1270.42,725.15,1269.24z"/>
	<path class="st63" d="M731.22,1335.36c1.03,0.03,2.05,0.07,3.08,0.1c1.5,1.75,1.17,4.03,1.72,6.05c0.55,2.04,0.69,4.19,1.53,5.95
		c2.16-3.27,3.04-7.44,6.54-9.96c1.05,0.27,2.09,0.54,3.14,0.81c0.24,3.68-2.94,5.85-3.95,8.98c-0.51,0.64-0.93,1.37-1.53,1.9
		c-1.75,1.56-3.07,4.3-6.04,3.26c-3.18-1.11-3.37-4.02-3.55-6.89C731.95,1342.16,730.8,1338.83,731.22,1335.36z"/>
	<path class="st22" d="M723.11,1246.42c-3.07-2.63-5.96-5.29-9.93-6.89c-4.2-1.69-7.99-0.76-11.98-0.17
		c0.21-5.36,5.18-6.26,8.36-8.82c0.35-0.28,1.52-0.12,1.84,0.25C715.76,1235.66,720.62,1240.16,723.11,1246.42z"/>
	<path class="st22" d="M726.18,1271.32c1.44-1.79,2.74-3.65,3.1-5.99c0.55-0.77,1.1-1.54,1.73-2.43c2.08,2.28,2.03,5.24,2.79,7.86
		c0.68,2.36,1.15,4.8-1.6,6.62c-2.66,1.77-4.35,0.01-6.23-1.2c-0.67-0.43-1.16-1.14-1.73-1.73
		C723.37,1272.48,724.99,1272.03,726.18,1271.32z"/>
	<path class="st64" d="M659.45,1262.4c0.71-0.4,1.42-0.8,2.13-1.19c2.2-1.2,4.36-1.12,6.51,0.16c1.24,0.74,1.41,2.01,0.89,2.98
		c-1.14,2.15-2.45,4.35-5.52,3.91C661.58,1266.68,656.89,1267.02,659.45,1262.4z"/>
	<path class="st65" d="M690.23,1264.34c0.34-0.36,0.68-0.72,1.02-1.08c0.9-0.16,1.32,0.36,1.59,1.1c0.12,0.77-0.09,1.44-0.63,2
		c1.84,7.39,7.05,11.19,14.01,13.1c0.52,1.14,0.48,1.83-1.09,1.67C697.51,1280.41,690.35,1272.36,690.23,1264.34z"/>
	<path class="st22" d="M658.46,1279.36c-1.79-0.2-4.39,0.32-3.32-3.07c0.48-1.5-0.64-4.9,1.47-4.15c2.18,0.77,5.96,1.4,6.32,4.62
		C663.25,1279.6,660.5,1279.25,658.46,1279.36z"/>
	<path class="st22" d="M661.12,1256.85c-0.33,1.69-0.93,3.57-2.76,3.72c-2.98,0.25-2.16-2.77-2.91-4.33
		c-0.57-1.19-0.28-2.95,1.71-2.61C658.93,1253.92,660.74,1254.61,661.12,1256.85z"/>
	<path class="st66" d="M726.18,1271.32c-0.65,1.05-1.3,2.09-1.95,3.14c-1.69,1.61-3.39,3.22-5.08,4.84
		c-1.11,0.94-2.17,0.88-3.2-0.14c3.19-3.19,6.86-5.93,9.2-9.92C725.49,1269.93,725.84,1270.63,726.18,1271.32z"/>
	<path class="st22" d="M659.45,1262.4c-1.39,3.81,3.57,3.29,4.01,5.85c-2.19,0.16-4.56-0.12-5.78-1.85
		C656.68,1264.99,657.91,1263.35,659.45,1262.4z"/>
	<path class="st22" d="M715.95,1279.16c1.07,0.05,2.13,0.1,3.2,0.14c1.57,1.3,1.29,2.78-0.3,3.47c-1.99,0.86-2.38-0.88-2.63-2.39
		c-0.54-0.35-0.58-0.74-0.11-1.18C716.11,1279.2,715.95,1279.16,715.95,1279.16z"/>
	<path class="st22" d="M667.02,1244.95c-0.1,0.74-0.55,1.23-1.27,1.21c-0.95-0.03-1.48-0.6-1.28-1.61c0.15-0.77,0.73-1.01,1.44-0.95
		C666.73,1243.67,666.94,1244.27,667.02,1244.95z"/>
	<path class="st66" d="M716.11,1279.2c0.03,0.39,0.07,0.78,0.11,1.18c-1.99-0.24-4.14,0.7-5.94-0.86
		C712.22,1279.4,714.17,1279.3,716.11,1279.2z"/>
	<path class="st22" d="M729.31,1257.33c-0.82-1.19-1.21-2.5-1.21-3.94C729.27,1254.46,730.78,1255.43,729.31,1257.33z"/>
	<path class="st67" d="M696.29,1242.46c-0.01,1.66-0.28,3.18-2.05,3.93C694.36,1244.78,694.82,1243.36,696.29,1242.46z"/>
	<path class="st68" d="M619.25,1284.4c-7.25,0.49-13.21-2.01-16.64-8.5c-4.52-8.54-3.07-16.61,3.26-23.84
		c5.05-5.78,11.42-9.26,18.87-6.52c7.98,2.94,19.71,19.08,12.58,29.5C633.04,1281.31,627.1,1284.81,619.25,1284.4z"/>
	<path class="st69" d="M613.22,1229.64c0.18,1.64-0.66,2.61-1.9,3.69c-3.75,3.28-8.7,4.75-12.22,8.35c-0.99,1.01-2.47,0.97-3.7,0.2
		c-1.56-0.98-0.75-2.24-0.28-3.48c1.89-4.96,4.06-9.75,8.04-13.45c1.72-1.6,3.42-3.22,6.05-1.57
		C611.55,1224.85,613.53,1226.49,613.22,1229.64z"/>
	<path class="st70" d="M739.17,1236.37c-1.43,0.99-2.33,0.2-3.32-0.83c-2.51-2.62-5.09-5.17-7.69-7.71
		c-1.68-1.64-2.53-3.31-1.33-5.7c1.13-2.24,2.7-3.9,5.19-4.04c2.63-0.15,3.51,2.05,4.25,4.09c0.72,1.99,1.31,4.04,1.95,6.06
		C738.54,1230.95,740.65,1233.46,739.17,1236.37z"/>
	<path class="st71" d="M739.17,1236.37c-0.31-2.71-0.63-5.42-0.94-8.13C739.43,1230.85,741.57,1233.35,739.17,1236.37z"/>
	<path class="st72" d="M328.28,870.54c0.29-0.29,0.57-0.58,0.86-0.87c2.9-1.49,5.96-2.43,8.61-4.68c3.82-3.24,8.4-1.58,10.33,3.08
		c0.19,0.46,0.06,1.25,0.38,1.4c4.63,2.24,4.4,5.98,4.24,10.44c-0.16,4.81-1.5,7.29-6.3,6.85c-2.32-0.21-4.39-0.32-6.71,0.53
		c-2.91,1.07-6.28-0.09-7.23-2.81c-1.43-4.11-3.37-8-4.74-12.12C327.51,871.75,327.86,871.08,328.28,870.54z"/>
	<path class="st73" d="M328.64,868.87c0.4,4.58,4.29,9.31,4.29,14.31c0,2.17,3.64,4.31,5.9,3.15c2.99-1.54,5.6-0.8,8.47-0.69
		c3.93,0.16,5.4-1.94,3.85-5.47c-0.55-1.25-0.59-2,0.15-3.12c1.67-2.51,1.39-4.46-2.03-4.86c-1.87-0.22-1.72-1.55-2.08-2.83
		c-1.47-5.23-5.99-6.72-9.57-2.78c-2.49,2.74-5.71,3.53-8.92,3.46c0.26-0.31-0.64-0.72-0.36-1s2.2-0.81,2.49-1.06
		c2.6-2.21,5.81-3.58,8.48-5.71c1.06-0.85,2.54-0.72,3.85-0.47c4.61,0.88,11.56,10.62,10.83,15.33c-0.15,1-0.22,1.81,0.03,2.83
		c1.18,4.82-1.7,9.05-6.5,8.4c-3.54-0.48-6.77,0.21-10.15,0.35c-0.56,0.42-1.21,0.57-1.89,0.66c-1.95-0.18-3.06-1.66-4.38-2.81
		c-0.67-0.55-1.18-1.23-1.6-1.99c0.86-3.01,0.45-5.61-1.68-8.16C326.34,874.66,325.66,870.6,328.64,868.87z"/>
	<path class="st74" d="M329.49,884.59c0.75,0.09,1.46,0.25,1.77,1.06c0.37,2.6-0.23,4.32-2.09,6.77c-3.61,4.75-5.97,10.75-3.6,17.14
		c0.44,1.17,0.59,1.89,0.09,3.13c-2.33,5.76,0.7,15.6,6.47,17.38c5.8,1.79,11.99,4.77,18.46,1.61c1.96-0.96,4.02-1.67,4.75-4.01
		c0.35-1.14,0.95-1.77,2.16-2.37c5.05-2.49,8.86-6.1,8.7-12.32c-0.03-1.29,0.49-1.98,1.56-2.04c2.2-0.12,3.35-2.04,5.19-2.74
		c0.49-0.01,0.93,0.14,1.31,0.45c-4.58,9.56-10.54,18.18-19.35,24.18c-14.06,9.56-32.82-0.06-33.7-17
		C320.64,904.55,323.43,894.13,329.49,884.59z"/>
	<path class="st75" d="M374.27,908.64c-0.35-0.05-0.71-0.1-1.06-0.15c-2.25,0.15-4.42,0.07-5.91-2c-0.34-0.56-0.53-1.19-0.87-1.76
		c-0.32-2.75-0.15-5.47-1.59-8.17c-1.49-2.8-1.3-5.94,2.37-7.43c1.5-0.61,2.15-2.01,3.28-2.94c3.85-3.21,6.61-2.92,9.63,1.08
		c0.7,0.92,1.14,1.84,2.39,2.31c5.53,2.05,7.35,5.81,5.48,12.83c-1.1,4.13-4.55,5.31-8.68,4.44
		C377.31,906.44,375.89,907.88,374.27,908.64z"/>
	<path class="st76" d="M366.42,904.73c0.32,0.33,0.64,0.66,0.95,0.99c1.08,2.13-0.12,3.7-1.08,5.51c-1.19,2.23-3.37,4.29-2.05,7.3
		c0.39,0.89-0.1,2.03-0.83,2.04c-4.63,0.09-6.53,4.12-9.62,6.41c-5.92,4.38-13.39,4.21-20.33,0.26c-8.13-4.63-7.32-11.99-6.74-19.41
		c0.18-2.3,1.08-4.55,0.29-6.89c-0.21-0.63-0.45-1.57,0.1-1.88c4.18-2.33,4.06-8.01,8.16-10.37c0.69,0.01,1.39,0.03,2.08,0.04
		c-1.05,1.98-2.1,3.96-3.15,5.94c-0.4,1.54-0.42,3.17-1.05,4.67c-1.14,3.1-1.86,6.32-2.68,9.52c-0.22,0.71-0.66,1.28-1.08,1.87
		c-0.01,1.62-0.02,3.24-0.03,4.86c1.31,1.25,1.88,2.99,2.98,4.39c2.98,3.9,6.76,6.33,11.81,6.44c1.36-0.18,2.63,0.64,4,0.35
		C358.07,922.58,361.81,913.3,366.42,904.73z"/>
	<path class="st77" d="M331.33,920.52c-1.47-1.32-1.73-3.13-1.96-4.94c0.95-0.25,1.89-0.55,2.85-0.74c8.49-1.68,12.72,0.9,15,9.21
		c0.26,0.93,0.09,1.99,0.94,2.71c-1.13,1.25-2.59,0.73-3.95,0.75c-0.71-0.73-1.03-1.67-1.41-2.59
		C340.12,918.43,337.92,917.6,331.33,920.52z"/>
	<path class="st78" d="M332.42,898.58c0.09-1.53,0.67-2.84,1.78-3.91c3.05,2.16,5.37,4.68,4.64,8.84c-1.04,5.88-2.54,7.05-9.44,7.22
		c0.01-0.73,0.03-1.45,0.04-2.18c0.51-0.43,1.09-0.71,1.7-0.97C336.41,905.33,336.81,902.48,332.42,898.58z"/>
	<path class="st4" d="M981.16,306.85c-1.66,0.09-3.32,0.19-4.99,0.28c3.9-12.71,10.66-23.64,21.32-31.66
		c10.17-7.66,32.36-12.68,48.24-1.48c11.36,8.01,19.52,17.84,23.36,31.2c-1.39-0.1-2.79-0.21-4.18-0.31
		c-1.73-0.78-2.05-2.49-2.69-4.02c-6.07-14.46-16.64-24.77-31.86-27.63c-10.97-2.06-22.51-0.26-31.84,7.82
		C990.35,288.11,985.11,297.02,981.16,306.85z"/>
	<path class="st62" d="M1064.06,208.29c3.94,2.49,6.78,5.98,9.06,9.97c0.79,2.66,1.58,5.31,2.37,7.97c1.69,1.43,1.01,3.39,1.15,5.17
		c-0.09,1.57,0.23,3.16-0.26,4.71c-1.05,7.27-4.98,12.64-12.02,14.4c-8.54,2.13-16.74,1-23.67-5.44
		c-12.25-11.38-7.53-27.01,1.09-34.15C1048.63,205.22,1056.33,206.67,1064.06,208.29z"/>
	<path class="st68" d="M1007.31,232.14c-3.55,11.75-11.25,15.78-23.41,12.23c-8.49-2.48-14.53-14.35-11.89-23.38
		c2.75-9.4,8.62-14.52,17.04-14.77c10.41-0.3,11.72,3.17,16.1,10.5c0.84,1.4,1.37,2.99,2.04,4.5
		C1008.07,224.85,1008,228.49,1007.31,232.14z"/>
	<path class="st79" d="M1073.19,275.22c0.07-3.79,0.02-7.59,0.29-11.37c0.08-1.16,0.69-2.81,2.5-2.39c1.52,0.36,1.06,1.82,1.17,2.91
		c0.03,0.33-0.03,0.66,0,0.99c0.2,2.41-2.47,5.46-0.24,7c2.96,2.05,6.84,2.77,10.32,4.05c0.15,0.05,0.31,0.11,0.46,0.1
		c1.53-0.09,2.19-4.14,4.12-1.28c1.35,2-0.91,3.96-1.72,5.88c-0.81,0.69-1.74,0.99-2.8,0.92c-3.68-1.24-7.42-2.32-11.02-3.82
		C1074.78,277.7,1073.69,276.76,1073.19,275.22z"/>
	<path class="st80" d="M1022.36,237.22c-0.92-3.25-2.23-5.26-5.36-5.87c-1.13-0.22-1.74-1.39-1.85-2.69
		c-0.32-3.74,2.07-5.1,5.1-5.38c3.42-0.31,7.24-0.71,8.82,3.53c0.6,1.61-0.58,2.97-2.12,3.46
		C1023.7,231.3,1021.98,233.23,1022.36,237.22z"/>
	<path class="st81" d="M1087.03,281.35c1.02-0.08,2.04-0.15,3.07-0.23c-1.66,4.08-4.17,6.82-9.07,5.52
		c-5.46-1.45-8.33-5.69-7.83-11.41c0.99,0.69,1.99,1.38,2.98,2.06C1081.08,283.3,1081.24,283.37,1087.03,281.35z"/>
	<path class="st82" d="M1007.31,232.14c-0.04-3.64-0.07-7.28-0.11-10.93C1008.92,224.84,1009.37,228.48,1007.31,232.14z"/>
	<path class="st83" d="M981.16,306.85c0.37-7,4.22-12.5,8.19-17.77c7.22-9.59,16.16-15.7,28.85-17.23
		c11.29-1.36,20.39,1.49,29.08,7.9c8.7,6.42,14.66,14.72,17.63,25.13c-9.4-1.19-18.81-2.06-28.3-1.88c-1.52,0.03-3-0.08-4.35-0.85
		c-2.1-2.42-1.5-5.2-1.06-7.95c0.26-0.6,0.57-1.19,1.18-1.55c1.62-0.95,4.2-1.31,2.92-4.18c-0.98-2.18-1.05-5.25-4.1-5.76
		c-2.76-0.45-4.67,1.45-6.29,3.37c-1.1,1.3-0.79,2.86,0.15,4.17c0.87,1.21,1.99,2.26,2.26,3.82c0.2,2.72,0.8,5.49-0.94,7.97
		c-6.41,0.03-12.83,0.05-19.24,0.08c-2.9-1.78-2.28-4.5-1.92-7.14c0.27-0.97,0.8-1.83,1.52-2.5c3.99-3.71,3.77-3.92-0.19-8.4
		c-2.96-3.36-5.23-0.8-7.41,1.31c-0.45,0.49-0.9,0.99-1.3,1.52c-0.96,1.47-1.02,2.8,0.65,3.8c1.31,0.79,2.48,1.67,2.8,3.29
		c0.05,3.02,2.29,6.07-0.14,9.04C994.47,304.32,987.82,305.58,981.16,306.85z"/>
	<path class="st84" d="M1006.2,302.32c-1.18,1.18-2.66,0.7-4.05,0.73c-1.15-3.06-0.13-6.11,0.03-9.17c0.83-0.6,1.71-0.63,2.63-0.26
		C1006.92,296.26,1004.1,299.68,1006.2,302.32z"/>
	<path class="st85" d="M1026.36,302.06c0.02-2.9,0.03-5.8,0.05-8.7c1.17-0.45,1.9,0.2,2.55,1.03c1.5,2.75,1.06,5.3-0.84,7.69
		C1027.53,302.07,1026.95,302.06,1026.36,302.06z"/>
	<path class="st86" d="M1002.15,294.17c2.24,2.96-1,5.92,0,8.88c-0.34,0-0.68,0-1.02-0.01c0.25-3.3-1.41-6.46-0.75-9.8
		C1001.34,292.84,1001.83,293.35,1002.15,294.17z"/>
	<path class="st87" d="M1032.26,293.18c0,2.99-0.01,5.98-0.01,8.98c-0.38,0-0.75,0-1.13,0c-3.66-2.09-0.93-5.33-1.44-7.99
		C1030.32,293.28,1031.06,292.62,1032.26,293.18z"/>
	<path class="st88" d="M1030.21,294.24c0.01,2.67-0.7,5.43,0.91,7.92c-1-0.03-2-0.05-3-0.08c-0.2-2.61,1.38-5.22,0.01-7.84
		C1028.83,293.64,1029.52,293.64,1030.21,294.24z"/>
	<path class="st89" d="M1006.2,302.32c-3.47-2.33-0.63-5.55-1.17-8.3c0.48-1.5,0.98-1.17,1.47-0.01c0.06,2.72-0.78,5.51,0.61,8.13
		C1006.81,302.18,1006.51,302.24,1006.2,302.32z"/>
	<path class="st90" d="M933.06,271.27c-2.04,0.91-4.34,1.61-5.45-0.91c-0.87-1.96,0.2-3.7,2.55-4.2
		C931.74,267.52,932.3,269.46,933.06,271.27z"/>
	<path class="st91" d="M926.1,251.31c-0.87,0.25-1.55,2.36-2.63,0.4c-0.94-1.71-2.11-3.56-0.58-5.51c1.14-1.44,1.94-0.14,2.83,0.53
		c0.36,0.27,0.93,0.26,1.4,0.37C926.78,248.5,926.44,249.91,926.1,251.31z"/>
	<path class="st92" d="M927.28,246.21c-0.52-1.85-1.59-3.7,0.7-5.27c2.17-1.49,2.78,1.03,4.19,1.43
		C930.58,243.7,928.46,244.37,927.28,246.21z"/>
	<path class="st48" d="M925.65,232.29c2.08,0.37,1.92,2.59,2.29,4.14c0.39,1.6-1.11,3.44-2.31,3.19c-2.57-0.54-1.71-3.41-2.31-5.26
		C922.91,233.07,923.85,232.22,925.65,232.29z"/>
	<path class="st91" d="M923.92,259.93c0.94,1.95,4.11,2.94,2.42,5.84c-0.41,0.69-0.93,0.95-1.55,0.43
		C922.75,264.46,922.9,262.27,923.92,259.93z"/>
	<path class="st93" d="M923.61,271.9c0.35-0.11,0.83-0.45,1.12-0.32c0.87,0.37,1.66,0.92,1.75,2.02c-0.43,0.02-0.94,0.2-1.28,0.04
		C924.53,273.31,923.59,273.15,923.61,271.9z"/>
	<path class="st94" d="M352.65,812.26c0.03,7.42-2.02,13.4-9.17,16.82c-8.03,3.84-14.84,1.22-21.06-3.76
		c-4.69-3.76-5.59-16.26-2.18-23.89c3.04-6.82,9.55-10.81,16.66-10.2c6.64,0.57,14.23,8.55,15.36,16.24
		C352.49,809.12,352.53,810.79,352.65,812.26z"/>
	<path class="st94" d="M417.47,828.37c0.03,2.64,0.47,5.32-0.49,7.89c-3.75,10.03-11.81,12.36-20.69,6.01
		c-8.01-5.73-9.02-18.7-1.99-25.68c3.69-3.66,12.73-5.63,17.18-3.36c5.1,2.6,6.25,7.37,6.01,12.65
		C417.44,826.7,417.48,827.54,417.47,828.37z"/>
	<path class="st95" d="M426.71,813.31c-0.34-2.13-0.47-3.89-0.93-5.55c-0.53-1.87,0.58-2.76,1.83-3.54c0.46-0.29,1.42-0.37,1.8-0.08
		c1.29,0.97,0.85,2.32,0.36,3.54C429.02,809.55,428.83,811.75,426.71,813.31z"/>
	<path class="st95" d="M318.22,769.63c1.12-2.43,1.45-4.61,4.11-4.68c0.81-0.02,1.78,0.86,1.47,1.58
		C322.9,768.62,320.91,769.08,318.22,769.63z"/>
	<path class="st96" d="M692.22,1266.37c-0.01-0.64-0.01-1.28-0.02-1.92c0.88-3.34-1.68-7.33,1.94-10.15
		c2.81-1.29,5.56-5.48,8.52-0.24c2.77,4.91,1.62,12.33-2.06,14.49c-1.93,1.13-3.51,0.26-5.16-0.45
		C694.32,1267.62,693.98,1265.68,692.22,1266.37z"/>
	<path class="st97" d="M744.09,1337.5c-1.58,3.97-3.69,7.65-6.68,11.74c-2.71-4.59-3.26-9.1-3.11-13.79
		C737.84,1334.82,741.07,1335.63,744.09,1337.5z"/>
	<path class="st61" d="M618.47,1282.39c-9.73-0.01-18.1-12.36-14.52-21.48c2.46-6.28,6.12-11.34,13.16-13.15
		c3.5-0.9,6.64-0.53,9.01,2.18c2.84,3.25,5.75,6.55,7.89,10.26C639.23,1269.29,629.91,1282.4,618.47,1282.39z"/>
	<path class="st98" d="M597.66,1239.67c1.36-5.24,3.35-9.82,7.16-13.5c1.95-1.89,3.3-1.67,4.91,0.18c1.63,1.86,2.15,3.36-0.06,5.44
		C606.13,1235.13,600.93,1235.84,597.66,1239.67z"/>
	<path class="st99" d="M734.72,1229.96c-1.78-1.43-3.5-2.64-5.01-4.06c-1.72-1.62-1.11-3.37,0.4-4.69c1.91-1.68,2.88-0.2,3.71,1.39
		C734.99,1224.81,735.75,1227.07,734.72,1229.96z"/>
	<path class="st100" d="M335.28,888.68c-2.84,3.36-2.29,8.95-7.35,11.01c-0.64,0.26,1.67,1.87,1.07,3.73
		c-1.85,5.74-2.01,11.34-0.14,17.43c1.1,3.57,3.99,3.78,5.82,5.46c3.72,3.41,9.39,3.67,13.93,2.85c3.26-0.59,6.13-4.41,8.73-7.2
		c1.8-1.93,3.37-3.22,6.62-1.9c-3.45-2.42-1.91-4.34-0.4-6.38c1.78-2.4,3.25-4.98,3.82-7.97c1.58,1.7,3.99,1.63,5.84,2.77
		c-1.77,1.75-1.89,6.36-7.08,2.85c3.35,2.55,3.09,4.16,0.92,6.24c-1.65,1.58-3.11,3.57-4.01,5.65c-1.45,3.33-5.54,3.18-7.31,6.77
		c-1.81,3.67-7.2,3.51-11.23,4.31c-2.15,0.43-4.72,1.23-6.09-1.71c-0.19-0.41-0.05-1.54-1.07-0.69c-3.89,3.27-6.86-0.47-8.26-2.4
		c-3.74-5.18-8.91-10.57-4.11-17.99c0.77-1.2-1.9-1.18-1.71-2.75c0.84-6.81,0.39-14.03,6.89-18.81c1.36-1-2.14-3.57,1.1-4.31
		C332.6,886.67,333.94,887.67,335.28,888.68z"/>
	<path class="st101" d="M385.19,898.56c1.05,4.77-1.24,6.75-6.23,6.13c-0.33-0.04-0.66-0.03-0.99-0.01
		c-9.12,0.5-10.48-0.43-11.38-9.67c-0.46-4.72,4.8-5.28,7.28-7.85c1.58-1.63,3.56-0.02,4.72,1.97c0.55,0.94,1.61,2.16,2.51,2.22
		C385.92,891.67,385.42,894.98,385.19,898.56z"/>
	<path class="st102" d="M331.33,920.52c2.16-3.77,7.85-4.28,10.34-0.76c1.59,2.25,3.04,4.73,2.54,7.74
		C338.63,927.55,334.41,925.09,331.33,920.52z"/>
	<path class="st103" d="M332.42,898.58c3.3-1.11,4.21,1.21,4.39,3.53c0.21,2.66-0.56,5.32-3.49,6.34c-1.17,0.41-2.58,0.09-3.89,0.1
		C329.99,905.09,331.05,901.79,332.42,898.58z"/>
	<path class="st104" d="M1054.94,209.21c7.53-0.36,12.64,3.73,16.03,10.5c1.65,3.29,2.56,6.86,3.03,10.45
		c1.88,14.43-10.43,22.98-25.05,17.52c-6.36-2.37-13.02-10.87-13.05-16.92c-0.06-8.9,2.76-16.24,11.32-20.5
		C1049.63,209.07,1052.05,209.38,1054.94,209.21z"/>
	<path class="st104" d="M1005.17,227.53c-0.12,10.18-5.29,15.74-14.56,15.64c-10.13-0.11-16.78-7.37-16.68-18.21
		c0.09-9.39,7.1-16.43,16.4-16.47C998.5,208.45,1005.29,217.16,1005.17,227.53z"/>
	<path class="st105" d="M1087.03,281.35c-1.13,2.11-2.79,3.49-5.21,2.53c-2.96-1.16-5.78-2.68-5.64-6.6
		C1079.89,278.38,1083.85,278.8,1087.03,281.35z"/>
	<path class="st106" d="M997.16,285.96c0.26-0.27,0.52-0.53,0.78-0.8c5.75-3.91,6.19-3.94,9.43-0.21c1.12,1.29,3.15,2.24,2.33,4.48
		c-0.89,2.44-3.03,3.34-5.34,3.82C1000.27,294.1,996.37,290.12,997.16,285.96z"/>
	<path class="st107" d="M997.16,285.96c-0.79,4.87,3.28,5.74,6.27,6.66c1.64,0.5,4.24-0.63,5.34-2.86c0.73-1.48,0.04-2.55-1.17-3.37
		c-1.88-1.27-2.94-4.47-6.12-2.78c-1.15,0.61-2.07,1.69-3.55,1.55c3.96-4.63,6.48-5.31,9.23-2.49c5.53,5.67,5.52,5.87-0.67,11.34
		c-0.49-0.39-0.98-0.71-1.47,0.01c-0.96,0.05-1.92,0.1-2.88,0.15c-0.59-0.31-1.18-0.61-1.77-0.92
		C998.09,291.36,992.88,290.75,997.16,285.96z"/>
	<path class="st108" d="M1030.21,294.24c-0.69,0-1.38,0-2.08,0c-0.58-0.29-1.15-0.59-1.73-0.88c-1.77-1.82-4.4-3.23-3.52-6.43
		c0.89-3.23,3.89-4.46,6.46-5.6c3.28-1.45,6.47,1.86,7.67,7.59c0.83,4-1.88,4.26-4.75,4.25
		C1031.58,293.53,1030.9,293.89,1030.21,294.24z"/>
	<path class="st57" d="M338.23,815.4c0.27-5.06,3.33-10.06,6.17-9.5c4.55,0.9,4.28,4.94,4.28,8.29c0,4.18-3.3,7.69-6.43,7.45
		C339.45,821.43,338.02,819.22,338.23,815.4z"/>
	<path class="st57" d="M415.53,830.47c0.05,2.8-0.42,6.18-5.35,6.28c-3.58,0.08-4.57-2.4-4.7-5.2c-0.2-4.28,3.1-8.02,6.62-7.91
		C414.92,823.73,415.62,824.92,415.53,830.47z"/>
	<path class="st109" d="M617.47,1265.47c-0.14,2.83-0.26,4.62-1.25,6.25c-2,3.31-5.45,3.74-7.55,0.58
		c-2.02-3.03-3.3-6.36-1.82-10.23c0.82-2.15,1.65-4.22,4.19-4.12c2.67,0.1,5.07,1.19,5.83,4.18
		C617.23,1263.54,617.39,1265.01,617.47,1265.47z"/>
	<path class="st110" d="M372.47,895.64c-0.87-0.44-1.39-1.04-0.43-1.82c1.72-1.4,3.41-0.8,5.03,0.27c1.87,1.24,2.85,3.14,2.03,5.13
		c-0.71,1.72-1.36,0.01-1.91-0.58C376.28,896.6,375.1,894.99,372.47,895.64z"/>
	<path class="st111" d="M372.47,895.64c3.72-1.51,4.32-1.12,4.71,3C375.61,897.64,374.04,896.64,372.47,895.64z"/>
	<path class="st7" d="M1049.27,229.15c0.19,3.26-0.69,6.4-4.82,6.31c-4.28-0.1-5.07-3.68-5.26-7.12c-0.24-4.31,2.42-8.43,5.22-8.5
		C1047.32,219.77,1049.28,223.4,1049.27,229.15z"/>
	<path class="st62" d="M986.17,226.4c-0.26,2.98-1.2,6.03-5.51,6.3c-3.15,0.2-5.47-3-5.46-7.41c0.01-4.23,2.7-8.33,5.47-8.32
		C983.48,216.98,986.13,221.24,986.17,226.4z"/>
	<path class="st112" d="M1034.15,287.16c1.13,1.02,2.57,2.59,1.37,3.68c-1.86,1.69-4.82,2.12-7.13,1.68
		c-4.31-0.82-5.08-4.09-2.18-7.36c0.48,0.44,0.73,1.01,0.94,1.59c1.95,2.23,4.19,1.03,6.36,0.55
		C1033.73,287.25,1033.94,287.2,1034.15,287.16z"/>
	<path class="st113" d="M1026.06,287.18c0.05-0.68,0.1-1.35,0.15-2.03c0.65-0.35,1.31-0.7,1.96-1.05c2.8-1.46,4.67-0.8,5.45,2.37
		c0.04,0.77-0.08,1.48-0.8,1.94c-1.91-0.84-3.82-2.45-5.73,0.01C1026.28,288.39,1025.76,288.12,1026.06,287.18z"/>
	<path class="st114" d="M1033.38,287.12c-0.5-3.13-2.9-3-5.21-3.02c3.58-2.85,4.85-2.2,5.98,3.06c0,0,0,0,0,0
		C1033.87,287.67,1033.61,287.63,1033.38,287.12z"/>
	<path class="st108" d="M1033.38,287.12c0.26,0.02,0.52,0.03,0.77,0.04c-2.62,2.86-7.04,2.88-8.09,0.02
		c0.39,0.26,0.78,0.52,1.17,0.78c1.65-1.15,3.27-1.12,4.86,0.12C1032.52,287.76,1032.95,287.44,1033.38,287.12z"/>
	<path class="st115" d="M1032.09,288.08c-1.62-0.04-3.24-0.08-4.86-0.12c-0.02-1.54,0.72-2.58,2.25-2.65
		C1031.27,285.23,1032.13,286.3,1032.09,288.08z"/>
</g>
<g>
	<g>
		<path class="st61" d="M-1109.93,1181.24c-0.22,2.99-0.45,5.98-0.67,8.98c-0.18,2.49-0.23,5.21,1.35,7.31
			c0.38,0.5,1.22,0.05,0.86-0.5c-1.51-2.35-1.52-5.19-1.24-7.88c0.29-2.73,0.64-5.57,1.73-8.11c0.18-0.41-0.22-1-0.68-0.68
			c-0.64,0.43-1.07,1.03-1.23,1.78c0.32,0,0.64,0,0.96,0c-0.39-1.38,0.28-2.82,1.4-3.65c1.24-0.93,2.85-1.12,4.35-1.06
			c0.64,0.03,0.64-0.97,0-1c-1.84-0.08-3.8,0.26-5.24,1.49c-1.26,1.09-1.94,2.85-1.47,4.48c0.13,0.46,0.86,0.5,0.96,0
			c0.11-0.5,0.34-0.89,0.78-1.19c-0.23-0.23-0.46-0.46-0.68-0.68c-1.17,2.72-1.56,5.69-1.87,8.61c-0.31,2.86-0.23,5.89,1.37,8.38
			c0.29-0.17,0.58-0.34,0.86-0.5c-1.58-2.1-1.37-4.81-1.18-7.28c0.21-2.83,0.42-5.66,0.63-8.5
			C-1108.88,1180.6-1109.88,1180.61-1109.93,1181.24L-1109.93,1181.24z"/>
	</g>
</g>
</svg>
